{
.appVersion = "3228";
.formatVersion = 3;
DisplayStrings = (
"nnnnnnnnnnnnnnnnnnnnn
ooooooooooooooooooooooo",
"*",
"Moldwarps Eastward Aelwyd Rebellow Interviews Handicraftswoman Prowlingly Cwpan Marlowe Intergrows Browning Basswoods Shadowless Showboat Whipsaws Zwakheden Hoodwink Afterwords Downwardly Yows Poszukiwania Clowns Network Indew Chwedl Iddewon Swarfing Thwacking Enswathes Dziewczyna Crew Plowtering Afterword Swissings Lewisi Widow Gebouwen Bedstraw Cowherb Powerlessness Inworn Powoduje Fanwise Awed Llwyfan Twilights Proefwerk Weithredwr Shows Dwarfishly Sallows Overshowers Patrolwoman Stewpan Crewels Swanherds Wenkbrauwen Verschwunden Reweigh Butterwort Rhywbeth Dziewczynki Chwaraeon Arrowroot Jawbone Swift Awarning Tangleweed Looyenwork Enwomb Vertrouwen Trowing Spewers Misdraws Ewropeaidd Twardy Hollywoodized Throsglwyddo Stockwerke Underwoods Known Gewann Bulwarking Earthwolves Swim Lerpwl Lusterware Hathaway Crowley Highwayman Dywedir Councilwoman Bmw Skywriter Beweg Stonewallings Overworks Twilled Wappenschaw Pinnywinkles Streetways Chwymp Twelfths Awny Tweed Miswent Mishallowed Woolward Gwrywaidd Brown Sprawi Powinny Bowstrings Aufwacht Swat Reichweite Setswana Gaikwar Ryngwladol Giwba Awaked Unwittingness Rows Downriver Weduwepensioen Nawdd Newfangledness Schowaj Owerloup Schwitzt Betws Nawzajem Clawed Verwisselen Drownded Theow Downfalls Marrowbone Swindle Guestwise Knackwurst Powrocie Morwongs Conwy Howked Homeward Twattling Lwyfan Boswellian Showmanship Unanswerably Bwrdd Downlooked Edwards Twoseater Newlands Brushwork Hookworms Zwanen Leftward Floweret Bwyta Unclews Awnier Dwf Udawaj Gadwyn Awdur Televiewing Snowmen Gweithgynhyrchu Alew Bowdlerization Kotows Schijnwerpers Mawseeds Ruw Snowish Newton Ccounterdrawing Tizwas Cydweithredol Oywvershowered Brustwarzen Unwrites Owl Taiwan Micawberish Ludwig Gewonde Gowd Enwau Gweinidog Fieldwards Bekwame Eyebrowing Iddewig Towny Otherwhiles Whitewashers",
"abcdeéfghijklmnopqrstuvwxyz


glyphs = (
{
color = 6;
glyphname = A;
lastChange = "2023-12-13 19:32:56 +0000";
layers = (
{
anchors = (
{
name = bottom;
pos = (317,0);
},
{
name = ogonek;
pos = (546,10);
},
{
name = top;
pos = (317,700);
}
);
background = {
shapes = (
{
pos = (-25,0);
ref = P;
}
);
};
hints = (
{
horizontal = 1;
place = (652,72);
type = Stem;
},
{
horizontal = 1;
place = (313,73);
type = Stem;
},
{
horizontal = 1;
place = (-24,21);
target = up;
type = BottomGhost;
},
{
place = (410,91);
type = Stem;
},
{
place = (73,90);
type = Stem;
}
);
layerId = "2F065738-4B59-43EB-A5F2-FD5F277958EA";
shapes = (
{
closed = 1;
nodes = (
(180,-11,o),
(204,9,o),
(204,51,cs),
(204,186,ls),
(204,241,o),
(232,259,o),
(306,259,cs),
(346,259,o),
(391,277,o),
(416,300,c),
(416,51,ls),
(416,11,o),
(442,-11,o),
(488,-11,cs),
(535,-11,o),
(560,10,o),
(560,51,cs),
(560,455,ls),
(560,636,o),
(484,711,o),
(306,711,cs),
(132,711,o),
(60,639,o),
(60,455,cs),
(60,55,ls),
(60,9,o),
(82,-11,o),
(132,-11,cs)
);
},
{
closed = 1;
nodes = (
(202,367,o),
(204,403,o),
(204,455,cs),
(204,556,o),
(231,590,o),
(306,590,cs),
(384,590,o),
(416,554,o),
(416,459,cs),
(416,392,o),
(398,380,o),
(306,380,cs),
(263,380,o),
(219,367,o),
(198,346,c)
);
}
);
width = 620;
}
);
note = A;
unicode = 65;
},
{
color = 6;
glyphname = B;
lastChange = "2023-12-13 19:32:56 +0000";
layers = (
{
anchors = (
{
name = bottom;
pos = (359,0);
},
{
name = center;
pos = (359,350);
},
{
name = top;
pos = (359,700);
}
);
hints = (
{
horizontal = 1;
place = (653,72);
type = Stem;
},
{
horizontal = 1;
place = (315,72);
type = Stem;
},
{
horizontal = 1;
place = (-24,72);
type = Stem;
},
{
place = (389,90);
type = Stem;
},
{
place = (51,90);
type = Stem;
}
);
layerId = "2F065738-4B59-43EB-A5F2-FD5F277958EA";
shapes = (
{
closed = 1;
nodes = (
(335,0,ls),
(500,0,o),
(580,71,o),
(580,211,cs),
(580,296,o),
(553,344,o),
(488,373,c),
(529,397,o),
(551,447,o),
(551,518,cs),
(551,641,o),
(467,711,o),
(319,711,cs),
(148,711,o),
(76,658,o),
(76,532,cs),
(76,53,ls),
(76,22,o),
(95,0,o),
(121,0,cs)
);
},
{
closed = 1;
nodes = (
(220,200,ls),
(220,300,o),
(242,326,o),
(327,326,cs),
(400,326,o),
(430,292,o),
(430,210,cs),
(430,143,o),
(403,117,o),
(325,117,cs),
(220,117,l)
);
},
{
closed = 1;
nodes = (
(219,423,o),
(220,441,o),
(220,515,cs),
(220,575,o),
(247,600,o),
(314,600,cs),
(380,600,o),
(407,574,o),
(407,509,cs),
(407,445,o),
(388,425,o),
(325,425,cs),
(272,425,o),
(230,412,o),
(213,391,c)
);
}
);
width = 622;
}
);
metricLeft = H;
note = B;
unicode = 66;
},
{
color = 6;
glyphname = C;
lastChange = "2023-12-13 19:32:56 +0000";
layers = (
{
layerId = "2F065738-4B59-43EB-A5F2-FD5F277958EA";
shapes = (
{
closed = 1;
nodes = (
(470,-11,o),
(499,6,o),
(499,57,cs),
(499,103,o),
(476,120,o),
(417,120,cs),
(255,120,o),
(207,172,o),
(207,346,cs),
(207,521,o),
(255,581,o),
(417,581,c),
(477,581,o),
(499,598,o),
(499,643,c),
(499,694,o),
(470,711,o),
(385,711,c),
(166,711,o),
(57,586,o),
(57,347,cs),
(57,108,o),
(167,-11,o),
(385,-11,cs)
);
}
);
width = 531;
}
);
metricLeft = O;
metricRight = E;
unicode = 67;
},
{
color = 6;
glyphname = D;
lastChange = "2023-12-13 21:31:25 +0000";
layers = (
{
anchors = (
{
name = bottom;
pos = (358,0);
},
{
name = center;
pos = (358,350);
},
{
name = top;
pos = (358,700);
}
);
background = {
shapes = (
{
ref = B;
}
);
};
hints = (
{
horizontal = 1;
place = (652,72);
type = Stem;
},
{
horizontal = 1;
place = (-25,73);
type = Stem;
},
{
place = (389,90);
type = Stem;
},
{
place = (51,90);
type = Stem;
}
);
layerId = "2F065738-4B59-43EB-A5F2-FD5F277958EA";
shapes = (
{
closed = 1;
nodes = (
(282,0,ls),
(485,0,o),
(584,114,o),
(584,350,cs),
(584,585,o),
(486,700,o),
(285,700,cs),
(227,700,ls),
(135,700,o),
(76,643,o),
(76,552,cs),
(76,38,ls),
(76,16,o),
(96,0,o),
(124,0,cs)
);
},
{
closed = 1;
nodes = (
(220,518,ls),
(220,561,o),
(229,573,o),
(262,573,cs),
(390,573,o),
(434,516,o),
(434,347,cs),
(434,179,o),
(392,127,o),
(255,127,cs),
(220,127,l)
);
}
);
width = 641;
}
);
metricLeft = H;
metricRight = O;
note = D;
unicode = 68;
},
{
color = 6;
glyphname = E;
lastChange = "2023-12-13 19:32:56 +0000";
layers = (
{
anchors = (
{
name = bottom;
pos = (320,0);
},
{
name = ogonek;
pos = (531,10);
},
{
name = top;
pos = (347,700);
},
{
name = topleft;
pos = (75,700);
}
);
background = {
shapes = (
{
ref = H;
}
);
};
hints = (
{
horizontal = 1;
place = (652,72);
type = Stem;
},
{
horizontal = 1;
place = (314,72);
type = Stem;
},
{
horizontal = 1;
place = (-25,71);
type = Stem;
},
{
place = (51,90);
type = Stem;
}
);
layerId = "2F065738-4B59-43EB-A5F2-FD5F277958EA";
shapes = (
{
closed = 1;
nodes = (
(446,0,ls),
(497,0,o),
(516,18,o),
(516,64,cs),
(516,112,o),
(495,132,o),
(446,132,cs),
(220,132,l),
(220,198,l),
(220,273,o),
(236,291,o),
(298,291,cs),
(405,291,ls),
(441,291,o),
(464,317,o),
(464,357,cs),
(464,397,o),
(442,421,o),
(405,421,cs),
(306,421,ls),
(272,421,o),
(235,409,o),
(212,390,c),
(216,420,o),
(220,455,o),
(220,483,cs),
(220,543,o),
(247,568,o),
(314,568,cs),
(446,568,ls),
(490,568,o),
(516,592,o),
(516,633,cs),
(516,675,o),
(490,700,o),
(446,700,cs),
(321,700,ls),
(150,700,o),
(76,647,o),
(76,521,cs),
(76,53,ls),
(76,22,o),
(95,0,o),
(121,0,cs)
);
}
);
width = 548;
}
);
metricLeft = H;
note = E;
unicode = 69;
},
{
color = 6;
glyphname = F;
lastChange = "2023-12-13 21:38:52 +0000";
layers = (
{
anchors = (
{
name = bottom;
pos = (316,0);
},
{
name = top;
pos = (316,700);
}
);
background = {
shapes = (
{
ref = E;
}
);
};
hints = (
{
horizontal = 1;
place = (652,72);
type = Stem;
},
{
horizontal = 1;
place = (313,72);
type = Stem;
},
{
horizontal = 1;
place = (-24,21);
target = up;
type = BottomGhost;
},
{
place = (51,89);
type = Stem;
}
);
layerId = "2F065738-4B59-43EB-A5F2-FD5F277958EA";
shapes = (
{
closed = 1;
nodes = (
(197,-8,o),
(220,13,o),
(220,59,cs),
(220,171,ls),
(220,241,o),
(241,260,o),
(317,260,cs),
(395,260,ls),
(439,260,o),
(464,284,o),
(464,327,cs),
(464,371,o),
(440,394,o),
(395,394,cs),
(325,394,ls),
(276,394,o),
(236,383,o),
(211,363,c),
(217,403,o),
(220,448,o),
(220,481,cs),
(220,559,o),
(227,568,o),
(285,568,cs),
(445,568,ls),
(487,568,o),
(515,594,o),
(515,633,cs),
(515,674,o),
(488,700,o),
(445,700,cs),
(230,700,ls),
(132,700,o),
(76,642,o),
(76,542,cs),
(76,59,ls),
(76,14,o),
(100,-8,o),
(148,-8,cs)
);
}
);
width = 521;
}
);
metricLeft = H;
note = F;
unicode = 70;
},
{
color = 6;
glyphname = G;
lastChange = "2023-12-13 20:02:43 +0000";
layers = (
{
anchors = (
{
name = bottom;
pos = (314,0);
},
{
name = top;
pos = (314,700);
}
);
background = {
shapes = (
{
pos = (-11,0);
ref = O;
}
);
};
hints = (
{
horizontal = 1;
place = (653,71);
type = Stem;
},
{
horizontal = 1;
place = (314,72);
type = Stem;
},
{
horizontal = 1;
place = (-24,72);
type = Stem;
},
{
place = (389,90);
type = Stem;
},
{
place = (51,90);
type = Stem;
}
);
layerId = "2F065738-4B59-43EB-A5F2-FD5F277958EA";
shapes = (
{
closed = 1;
nodes = (
(482,-11,o),
(572,102,o),
(572,297,cs),
(572,376,o),
(552,396,o),
(482,396,cs),
(376,396,ls),
(342,396,o),
(322,376,o),
(322,340,cs),
(322,304,o),
(341,285,o),
(376,285,cs),
(458,285,l),
(445,267,o),
(437,238,o),
(427,194,cs),
(415,141,o),
(376,121,o),
(316,121,cs),
(245,121,o),
(205,166,o),
(205,346,cs),
(205,524,o),
(239,579,o),
(326,579,cs),
(363,579,o),
(403,573,o),
(437,573,cs),
(488,573,o),
(510,593,o),
(510,632,cs),
(510,660,o),
(496,678,o),
(468,689,cs),
(434,703,o),
(385,711,o),
(334,711,cs),
(154,711,o),
(57,596,o),
(57,347,cs),
(57,89,o),
(142,-11,o),
(313,-11,cs)
);
}
);
width = 631;
}
);
metricLeft = O;
note = G;
unicode = 71;
},
{
color = 6;
glyphname = H;
lastChange = "2023-12-13 19:32:56 +0000";
layers = (
{
background = {
shapes = (
{
pos = (7,0);
ref = O;
}
);
};
hints = (
{
horizontal = 1;
place = (724,-20);
target = down;
type = TopGhost;
},
{
horizontal = 1;
place = (315,71);
type = Stem;
},
{
horizontal = 1;
place = (-24,21);
target = up;
type = BottomGhost;
},
{
place = (389,90);
type = Stem;
},
{
place = (51,90);
type = Stem;
}
);
layerId = "2F065738-4B59-43EB-A5F2-FD5F277958EA";
shapes = (
{
closed = 1;
nodes = (
(199,-11,o),
(220,10,o),
(220,56,cs),
(220,195,ls),
(220,288,o),
(247,314,o),
(333,314,cs),
(395,314,o),
(444,331,o),
(452,355,c),
(452,56,ls),
(452,10,o),
(476,-11,o),
(526,-11,cs),
(575,-11,o),
(596,10,o),
(596,56,cs),
(596,644,ls),
(596,690,o),
(572,711,o),
(523,711,cs),
(473,711,o),
(452,690,o),
(452,644,cs),
(452,442,l),
(351,442,ls),
(281,442,o),
(247,430,o),
(213,396,c),
(218,414,o),
(220,462,o),
(220,544,cs),
(220,644,ls),
(220,690,o),
(196,711,o),
(147,711,cs),
(97,711,o),
(76,690,o),
(76,644,cs),
(76,56,ls),
(76,10,o),
(100,-11,o),
(150,-11,cs)
);
}
);
width = 672;
}
);
metricRight = "=|";
note = H;
unicode = 72;
},
{
color = 6;
glyphname = I;
lastChange = "2023-12-13 19:32:56 +0000";
layers = (
{
background = {
anchors = (
{
name = bottom;
pos = (-166,0);
},
{
name = ogonek;
pos = (45,10);
},
{
name = top;
pos = (-166,700);
},
{
name = topleft;
pos = (-411,700);
}
);
shapes = (
{
closed = 1;
nodes = (
(-273,122,ls),
(-321,122,o),
(-340,105,o),
(-340,62,cs),
(-340,17,o),
(-321,0,o),
(-273,0,cs),
(-22,0,ls),
(31,0,o),
(52,17,o),
(52,62,cs),
(52,105,o),
(31,122,o),
(-22,122,cs),
(-75,122,l),
(-75,500,ls),
(-75,558,o),
(-81,571,o),
(-109,578,c),
(-22,578,ls),
(31,578,o),
(52,595,o),
(52,640,cs),
(52,683,o),
(31,700,o),
(-22,700,cs),
(-273,700,ls),
(-321,700,o),
(-340,683,o),
(-340,640,cs),
(-340,595,o),
(-321,578,o),
(-273,578,cs),
(-219,578,l),
(-219,200,ls),
(-219,142,o),
(-213,129,o),
(-185,122,c)
);
}
);
};
hints = (
{
horizontal = 1;
place = (652,72);
type = Stem;
},
{
horizontal = 1;
place = (-24,72);
type = Stem;
},
{
place = (220,90);
type = Stem;
}
);
layerId = "2F065738-4B59-43EB-A5F2-FD5F277958EA";
shapes = (
{
closed = 1;
nodes = (
(199,-11,o),
(220,10,o),
(220,56,cs),
(220,644,ls),
(220,690,o),
(196,711,o),
(147,711,cs),
(97,711,o),
(76,690,o),
(76,644,cs),
(76,56,ls),
(76,10,o),
(100,-11,o),
(150,-11,cs)
);
}
);
width = 296;
}
);
metricLeft = H;
metricRight = H;
note = I;
unicode = 73;
},
{
color = 6;
glyphname = J;
lastChange = "2023-12-13 19:32:56 +0000";
layers = (
{
layerId = "2F065738-4B59-43EB-A5F2-FD5F277958EA";
shapes = (
{
closed = 1;
nodes = (
(350,-12,o),
(433,50,o),
(433,185,cs),
(433,633,ls),
(433,685,o),
(409,711,o),
(361,711,cs),
(313,711,o),
(289,685,o),
(289,633,cs),
(289,207,ls),
(289,142,o),
(268,121,o),
(214,120,cs),
(177,120,o),
(137,127,o),
(103,127,cs),
(52,127,o),
(30,106,o),
(30,67,cs),
(30,39,o),
(44,21,o),
(72,10,cs),
(106,-4,o),
(155,-12,o),
(206,-12,cs)
);
}
);
width = 509;
}
);
metricRight = H;
unicode = 74;
},
{
color = 6;
glyphname = K;
lastChange = "2023-12-13 19:32:56 +0000";
layers = (
{
background = {
shapes = (
{
pos = (13,0);
ref = H;
}
);
};
layerId = "2F065738-4B59-43EB-A5F2-FD5F277958EA";
shapes = (
{
closed = 1;
nodes = (
(576,-12,o),
(576,37,o),
(576,58,cs),
(576,215,ls),
(576,286,o),
(542,345,o),
(469,377,c),
(540,410,o),
(576,464,o),
(576,539,c),
(576,641,ls),
(576,662,o),
(576,711,o),
(501,711,cs),
(464,711,o),
(434,700,o),
(434,641,cs),
(434,516,o),
(401,441,o),
(302,441,cs),
(240,441,o),
(199,404,o),
(201,399,c),
(201,331,o),
(201,264,o),
(201,196,c),
(201,196,o),
(195,314,o),
(312,314,cs),
(426,314,o),
(433,250,o),
(433,58,cs),
(433,-1,o),
(471,-12,o),
(508,-12,cs)
);
},
{
closed = 1;
nodes = (
(200,-12,o),
(220,18,o),
(220,66,cs),
(220,314,o),
(220,444,o),
(220,633,cs),
(220,681,o),
(200,711,o),
(148,711,cs),
(96,711,o),
(76,681,o),
(76,633,cs),
(76,66,ls),
(76,18,o),
(96,-12,o),
(148,-12,cs)
);
}
);
width = 634;
}
);
metricLeft = H;
unicode = 75;
},
{
color = 6;
glyphname = L;
lastChange = "2023-12-13 19:32:56 +0000";
layers = (
{
layerId = "2F065738-4B59-43EB-A5F2-FD5F277958EA";
shapes = (
{
closed = 1;
nodes = (
(423,0,ls),
(473,0,o),
(500,24,o),
(500,69,cs),
(500,114,o),
(472,139,o),
(423,139,cs),
(276,139,ls),
(253,139,o),
(228,127,o),
(212,108,c),
(216,129,o),
(220,167,o),
(220,189,cs),
(220,633,ls),
(220,685,o),
(196,711,o),
(148,711,cs),
(100,711,o),
(76,685,o),
(76,633,cs),
(76,78,ls),
(76,26,o),
(100,0,o),
(148,0,cs)
);
}
);
width = 520;
}
);
metricLeft = H;
unicode = 76;
},
{
color = 6;
glyphname = M;
lastChange = "2023-12-13 19:32:56 +0000";
layers = (
{
anchors = (
{
name = bottom;
pos = (440,0);
},
{
name = top;
pos = (445,700);
}
);
hints = (
{
horizontal = 1;
place = (652,72);
type = Stem;
},
{
horizontal = 1;
place = (-23,21);
target = up;
type = BottomGhost;
},
{
horizontal = 1;
place = (-24,21);
target = up;
type = BottomGhost;
},
{
place = (727,90);
type = Stem;
},
{
place = (389,90);
type = Stem;
},
{
place = (51,90);
type = Stem;
}
);
layerId = "2F065738-4B59-43EB-A5F2-FD5F277958EA";
shapes = (
{
closed = 1;
nodes = (
(184,-11,o),
(204,11,o),
(204,66,cs),
(204,480,ls),
(204,546,o),
(232,579,o),
(289,579,cs),
(347,579,o),
(374,541,o),
(374,460,cs),
(374,76,ls),
(374,22,o),
(397,-1,o),
(448,-1,cs),
(498,-1,o),
(518,21,o),
(518,76,cs),
(518,460,ls),
(518,542,o),
(545,579,o),
(603,579,cs),
(660,579,o),
(688,547,o),
(688,480,cs),
(688,66,ls),
(688,12,o),
(711,-11,o),
(762,-11,cs),
(812,-11,o),
(832,11,o),
(832,66,cs),
(832,472,ls),
(832,634,o),
(768,711,o),
(632,711,cs),
(532,711,o),
(466,670,o),
(445,595,c),
(424,669,o),
(357,711,o),
(260,711,cs),
(128,711,o),
(60,629,o),
(60,472,cs),
(60,66,ls),
(60,12,o),
(83,-11,o),
(134,-11,cs)
);
}
);
width = 892;
}
);
metricLeft = "=A";
metricRight = "=|";
note = M;
unicode = 77;
},
{
color = 6;
glyphname = N;
lastChange = "2023-12-13 19:32:56 +0000";
layers = (
{
anchors = (
{
name = bottom;
pos = (317,0);
},
{
name = top;
pos = (317,700);
}
);
hints = (
{
horizontal = 1;
place = (652,72);
type = Stem;
},
{
horizontal = 1;
place = (-23,21);
target = up;
type = BottomGhost;
},
{
horizontal = 1;
place = (-24,21);
target = up;
type = BottomGhost;
},
{
place = (389,90);
type = Stem;
},
{
place = (51,90);
type = Stem;
},
{
horizontal = 1;
place = (-24,21);
target = up;
type = BottomGhost;
},
{
horizontal = 1;
place = (-23,21);
target = up;
type = BottomGhost;
},
{
horizontal = 1;
place = (724,-72);
type = Stem;
},
{
place = (277,-90);
type = Stem;
},
{
place = (615,-90);
type = Stem;
}
);
layerId = "2F065738-4B59-43EB-A5F2-FD5F277958EA";
shapes = (
{
closed = 1;
nodes = (
(180,-11,o),
(204,15,o),
(204,67,cs),
(204,452,ls),
(204,549,o),
(224,589,o),
(320,589,cs),
(400,589,o),
(431,551,o),
(431,452,cs),
(431,67,ls),
(431,15,o),
(455,-11,o),
(503,-11,cs),
(551,-11,o),
(575,15,o),
(575,67,cs),
(575,474,ls),
(575,634,o),
(488,711,o),
(320,711,cs),
(132,711,o),
(60,632,o),
(60,474,cs),
(60,67,ls),
(60,15,o),
(84,-11,o),
(132,-11,cs)
);
}
);
width = 651;
}
);
metricLeft = A;
metricRight = H;
note = N;
unicode = 78;
},
{
color = 6;
glyphname = O;
lastChange = "2023-12-13 19:32:56 +0000";
layers = (
{
anchors = (
{
name = bottom;
pos = (329,0);
},
{
name = center;
pos = (329,350);
},
{
name = ogonek;
pos = (583,0);
},
{
name = top;
pos = (329,700);
},
{
name = topleft;
pos = (16,700);
},
{
name = topright;
pos = (642,700);
}
);
hints = (
{
horizontal = 1;
place = (652,72);
type = Stem;
},
{
horizontal = 1;
place = (-24,72);
type = Stem;
},
{
place = (389,90);
type = Stem;
},
{
place = (51,90);
type = Stem;
}
);
layerId = "2F065738-4B59-43EB-A5F2-FD5F277958EA";
shapes = (
{
closed = 1;
nodes = (
(504,-11,o),
(601,121,o),
(601,351,cs),
(601,580,o),
(504,711,o),
(329,711,cs),
(154,711,o),
(57,580,o),
(57,351,cs),
(57,121,o),
(154,-11,o),
(329,-11,cs)
);
},
{
closed = 1;
nodes = (
(250,121,o),
(201,205,o),
(201,351,cs),
(201,496,o),
(250,579,o),
(329,579,cs),
(408,579,o),
(457,496,o),
(457,351,cs),
(457,205,o),
(408,121,o),
(329,121,cs)
);
}
);
width = 658;
}
);
note = O;
unicode = 79;
},
{
color = 6;
glyphname = P;
lastChange = "2023-12-13 19:32:56 +0000";
layers = (
{
anchors = (
{
name = bottom;
pos = (340,0);
},
{
name = top;
pos = (340,700);
}
);
hints = (
{
horizontal = 1;
place = (653,71);
type = Stem;
},
{
horizontal = 1;
place = (314,72);
type = Stem;
},
{
horizontal = 1;
place = (-24,21);
target = up;
type = BottomGhost;
},
{
place = (389,90);
type = Stem;
},
{
place = (51,90);
type = Stem;
}
);
layerId = "2F065738-4B59-43EB-A5F2-FD5F277958EA";
shapes = (
{
closed = 1;
nodes = (
(197,-9,o),
(220,10,o),
(220,47,cs),
(220,156,ls),
(220,241,o),
(227,261,o),
(341,261,cs),
(475,261,o),
(553,338,o),
(553,479,cs),
(553,641,o),
(470,711,o),
(333,711,cs),
(148,711,o),
(76,635,o),
(76,486,cs),
(76,47,ls),
(76,12,o),
(104,-9,o),
(150,-9,cs)
);
},
{
closed = 1;
nodes = (
(218,387,o),
(220,433,o),
(220,483,cs),
(220,568,o),
(248,597,o),
(327,597,cs),
(390,597,o),
(427,584,o),
(427,479,cs),
(427,399,o),
(399,382,o),
(313,382,cs),
(250,382,o),
(234,368,o),
(211,348,c)
);
}
);
width = 589;
}
);
metricLeft = H;
note = P;
unicode = 80;
},
{
color = 6;
glyphname = Q;
lastChange = "2023-12-13 19:32:56 +0000";
layers = (
{
anchors = (
{
name = bottom;
pos = (265,0);
},
{
name = top;
pos = (329,712);
}
);
hints = (
{
horizontal = 1;
place = (652,72);
type = Stem;
},
{
horizontal = 1;
place = (-24,72);
type = Stem;
},
{
horizontal = 1;
place = (-20,21);
target = up;
type = BottomGhost;
},
{
place = (389,90);
type = Stem;
},
{
place = (274,92);
type = Stem;
},
{
place = (51,90);
type = Stem;
}
);
layerId = "2F065738-4B59-43EB-A5F2-FD5F277958EA";
shapes = (
{
closed = 1;
nodes = (
(494,-140,o),
(509,-131,o),
(524,-113,cs),
(536,-98,o),
(542,-84,o),
(542,-71,cs),
(542,-54,o),
(532,-37,o),
(511,-21,cs),
(353,103,ls),
(339,114,o),
(325,119,o),
(314,119,cs),
(298,119,o),
(281,109,o),
(267,92,cs),
(253,75,o),
(246,56,o),
(246,44,cs),
(246,32,o),
(254,18,o),
(272,4,cs),
(431,-120,ls),
(450,-135,o),
(463,-140,o),
(476,-140,cs)
);
},
{
ref = O;
}
);
width = 658;
}
);
note = Q;
unicode = 81;
},
{
color = 6;
glyphname = R;
lastChange = "2023-12-13 19:32:56 +0000";
layers = (
{
anchors = (
{
name = bottom;
pos = (339,0);
},
{
name = top;
pos = (339,700);
}
);
hints = (
{
horizontal = 1;
place = (653,71);
type = Stem;
},
{
horizontal = 1;
place = (314,72);
type = Stem;
},
{
horizontal = 1;
place = (-24,21);
target = up;
type = BottomGhost;
},
{
place = (389,90);
type = Stem;
},
{
place = (51,90);
type = Stem;
}
);
layerId = "2F065738-4B59-43EB-A5F2-FD5F277958EA";
shapes = (
{
closed = 1;
nodes = (
(197,-9,o),
(220,10,o),
(220,47,cs),
(220,186,ls),
(220,271,o),
(227,291,o),
(352,291,cs),
(461,291,o),
(532,336,o),
(555,420,cs),
(560,439,o),
(563,460,o),
(563,503,cs),
(563,642,o),
(481,711,o),
(330,711,cs),
(148,711,o),
(76,635,o),
(76,486,cs),
(76,47,ls),
(76,12,o),
(104,-9,o),
(150,-9,cs)
);
},
{
closed = 1;
nodes = (
(532,-11,o),
(554,12,o),
(554,56,cs),
(554,232,ls),
(554,277,o),
(527,320,o),
(483,349,c),
(508,364,o),
(527,385,o),
(538,414,c),
(352,353,l),
(354,296,l),
(398,279,o),
(411,250,o),
(411,158,cs),
(411,46,ls),
(411,10,o),
(439,-11,o),
(485,-11,cs)
);
},
{
closed = 1;
nodes = (
(218,417,o),
(220,463,o),
(220,503,cs),
(220,567,o),
(255,594,o),
(330,594,cs),
(407,594,o),
(437,570,o),
(437,503,cs),
(437,424,o),
(410,412,o),
(313,412,cs),
(250,412,o),
(234,398,o),
(211,378,c)
);
}
);
width = 620;
}
);
metricLeft = H;
metricRight = O;
note = R;
unicode = 82;
},
{
color = 6;
glyphname = S;
lastChange = "2023-12-13 20:02:00 +0000";
layers = (
{
anchors = (
{
name = bottom;
pos = (303,0);
},
{
name = top;
pos = (303,700);
}
);
guides = (
{
angle = 90;
pos = (303,712);
}
);
hints = (
{
horizontal = 1;
place = (653,72);
type = Stem;
},
{
horizontal = 1;
place = (314,72);
type = Stem;
},
{
horizontal = 1;
place = (-24,72);
type = Stem;
},
{
place = (388,90);
type = Stem;
},
{
place = (51,90);
type = Stem;
}
);
layerId = "2F065738-4B59-43EB-A5F2-FD5F277958EA";
shapes = (
{
closed = 1;
nodes = (
(410,-12,o),
(508,64,o),
(508,205,cs),
(508,302,o),
(467,367,o),
(341,405,cs),
(230,438,o),
(196,471,o),
(196,514,cs),
(196,560,o),
(225,579,o),
(283,579,cs),
(320,579,o),
(360,568,o),
(394,568,cs),
(445,568,o),
(467,593,o),
(467,632,cs),
(467,660,o),
(453,678,o),
(425,689,cs),
(391,703,o),
(342,711,o),
(291,711,cs),
(152,711,o),
(53,633,o),
(53,498,cs),
(53,394,o),
(115,333,o),
(263,289,cs),
(345,265,o),
(365,232,o),
(365,188,cs),
(365,131,o),
(331,117,o),
(249,117,cs),
(212,117,o),
(155,131,o),
(121,131,cs),
(70,131,o),
(48,106,o),
(48,67,cs),
(48,39,o),
(62,21,o),
(90,10,cs),
(124,-4,o),
(187,-12,o),
(238,-12,cs)
);
}
);
width = 556;
}
);
note = S;
unicode = 83;
},
{
color = 6;
glyphname = T;
lastChange = "2023-12-13 19:32:56 +0000";
layers = (
{
anchors = (
{
name = bottom;
pos = (260,0);
},
{
name = center;
pos = (260,350);
},
{
name = top;
pos = (260,700);
}
);
hints = (
{
horizontal = 1;
place = (651,73);
type = Stem;
},
{
horizontal = 1;
place = (-24,21);
target = up;
type = BottomGhost;
},
{
place = (220,91);
type = Stem;
},
{
place = (51,89);
type = Stem;
}
);
layerId = "2F065738-4B59-43EB-A5F2-FD5F277958EA";
shapes = (
{
closed = 1;
nodes = (
(314,-11,o),
(346,5,o),
(346,38,cs),
(346,561,l),
(492,561,ls),
(524,561,o),
(539,596,o),
(539,631,cs),
(539,667,o),
(523,700,o),
(492,700,cs),
(56,700,ls),
(25,700,o),
(9,667,o),
(9,631,cs),
(9,596,o),
(24,561,o),
(56,561,cs),
(244,561,l),
(230,557,o),
(201,545,o),
(201,503,cs),
(202,38,ls),
(202,3,o),
(244,-11,o),
(278,-11,cs)
);
}
);
width = 528;
}
);
note = T;
unicode = 84;
},
{
color = 6;
glyphname = U;
lastChange = "2023-12-13 19:32:56 +0000";
layers = (
{
anchors = (
{
name = bottom;
pos = (312,0);
},
{
name = ogonek;
pos = (523,10);
},
{
name = top;
pos = (312,700);
},
{
name = topright;
pos = (556,700);
}
);
hints = (
{
horizontal = 1;
place = (724,-20);
target = down;
type = TopGhost;
},
{
horizontal = 1;
place = (723,-20);
target = down;
type = TopGhost;
},
{
horizontal = 1;
place = (-24,72);
type = Stem;
},
{
place = (389,90);
type = Stem;
},
{
place = (51,90);
type = Stem;
}
);
layerId = "2F065738-4B59-43EB-A5F2-FD5F277958EA";
shapes = (
{
closed = 1;
nodes = (
(485,-11,o),
(576,71,o),
(576,232,cs),
(576,633,ls),
(576,685,o),
(552,711,o),
(504,711,cs),
(456,711,o),
(432,685,o),
(432,633,cs),
(432,232,ls),
(432,150,o),
(389,111,o),
(310,111,cs),
(243,111,o),
(204,148,o),
(204,232,cs),
(204,633,ls),
(204,685,o),
(180,711,o),
(132,711,cs),
(84,711,o),
(60,685,o),
(60,633,cs),
(60,232,ls),
(60,69,o),
(147,-11,o),
(310,-11,cs)
);
}
);
width = 636;
}
);
metricLeft = "=A";
metricRight = "=|";
note = U;
unicode = 85;
},
{
color = 1;
glyphname = V;
lastChange = "2023-12-13 20:01:26 +0000";
layers = (
{
anchors = (
{
name = bottom;
pos = (288,0);
},
{
name = top;
pos = (288,700);
}
);
background = {
shapes = (
{
closed = 1;
nodes = (
(370,-11,o),
(416,18,o),
(452,94,cs),
(527,251,o),
(586,389,o),
(586,556,cs),
(586,625,o),
(570,711,o),
(495,711,cs),
(439,711,o),
(419,678,o),
(419,646,cs),
(419,632,o),
(423,611,o),
(427,590,cs),
(432,569,o),
(436,548,o),
(436,515,cs),
(436,416,o),
(401,312,o),
(315,157,c),
(174,614,ls),
(152,684,o),
(133,711,o),
(88,711,cs),
(26,711,o),
(-13,673,o),
(9,604,cs),
(171,99,ls),
(194,29,o),
(253,-11,o),
(310,-11,cs)
);
}
);
};
hints = (
{
horizontal = 1;
place = (724,-20);
target = down;
type = TopGhost;
},
{
horizontal = 1;
place = (-23,71);
type = Stem;
},
{
place = (388,89);
type = Stem;
},
{
place = (51,90);
type = Stem;
}
);
layerId = "2F065738-4B59-43EB-A5F2-FD5F277958EA";
shapes = (
{
closed = 1;
nodes = (
(368,-11,o),
(414,18,o),
(450,94,cs),
(525,251,o),
(584,389,o),
(584,556,cs),
(584,625,o),
(568,711,o),
(493,711,cs),
(437,711,o),
(417,678,o),
(417,646,cs),
(417,632,o),
(421,611,o),
(425,590,cs),
(430,569,o),
(434,548,o),
(434,515,cs),
(434,416,o),
(399,312,o),
(313,157,c),
(172,614,ls),
(150,684,o),
(131,711,o),
(86,711,cs),
(33,711,o),
(-4,672,o),
(18,604,cs),
(180,99,ls),
(203,30,o),
(256,-11,o),
(308,-11,cs)
);
}
);
width = 596;
}
);
note = V;
unicode = 86;
},
{
color = 1;
glyphname = W;
lastChange = "2023-12-13 19:34:38 +0000";
layers = (
{
anchors = (
{
name = bottom;
pos = (485,0);
},
{
name = top;
pos = (485,700);
}
);
hints = (
{
horizontal = 1;
place = (724,-20);
target = down;
type = TopGhost;
},
{
horizontal = 1;
place = (723,-20);
target = down;
type = TopGhost;
},
{
horizontal = 1;
place = (-24,72);
type = Stem;
},
{
place = (727,89);
type = Stem;
},
{
place = (388,91);
type = Stem;
},
{
place = (51,90);
type = Stem;
},
{
horizontal = 1;
place = (724,-20);
target = down;
type = TopGhost;
},
{
horizontal = 1;
place = (-23,71);
type = Stem;
},
{
place = (410.008,89);
type = Stem;
},
{
place = (126.852,90);
type = Stem;
},
{
horizontal = 1;
place = (724,-20);
target = down;
type = TopGhost;
},
{
horizontal = 1;
place = (-23,71);
type = Stem;
},
{
place = (771.008,89);
type = Stem;
},
{
place = (487.852,90);
type = Stem;
}
);
layerId = "2F065738-4B59-43EB-A5F2-FD5F277958EA";
shapes = (
{
closed = 1;
nodes = (
(815,-11,o),
(859,18,o),
(893,94,cs),
(965,251,o),
(1022,389,o),
(1022,556,cs),
(1022,625,o),
(1006,711,o),
(934,711,cs),
(881,711,o),
(862,678,o),
(862,646,cs),
(862,632,o),
(865,611,o),
(869,590,cs),
(874,569,o),
(878,548,o),
(878,515,cs),
(878,416,o),
(844,312,o),
(762,157,c),
(626,614,ls),
(605,684,o),
(587,711,o),
(544,711,cs),
(484,711,o),
(447,673,o),
(468,604,cs),
(624,99,ls),
(646,29,o),
(702,-11,o),
(757,-11,cs)
);
},
{
closed = 1;
nodes = (
(412,-11,o),
(457,18,o),
(491,94,cs),
(563,251,o),
(620,389,o),
(620,556,cs),
(620,625,o),
(604,711,o),
(532,711,cs),
(479,711,o),
(460,678,o),
(460,646,cs),
(460,632,o),
(463,611,o),
(467,590,cs),
(472,569,o),
(476,548,o),
(476,515,cs),
(476,416,o),
(442,312,o),
(360,157,c),
(224,614,ls),
(203,684,o),
(185,711,o),
(142,711,cs),
(82,711,o),
(45,673,o),
(66,604,cs),
(222,99,ls),
(244,29,o),
(300,-11,o),
(355,-11,cs)
);
}
);
width = 1052;
}
);
metricLeft = M;
note = W;
unicode = 87;
},
{
color = 1;
glyphname = X;
lastChange = "2023-12-13 19:34:38 +0000";
layers = (
{
layerId = "2F065738-4B59-43EB-A5F2-FD5F277958EA";
shapes = (
{
closed = 1;
nodes = (
(165,-11,o),
(182,3,o),
(194,30,cs),
(223,94,o),
(336,261,o),
(336,261,cs),
(506,17,ls),
(516,2,o),
(539,-11,o),
(564,-11,cs),
(578,-11,o),
(593,-7,o),
(607,5,cs),
(627,23,o),
(635,43,o),
(635,61,cs),
(635,80,o),
(626,97,o),
(616,109,cs),
(420,359,ls),
(420,359,o),
(597,512,o),
(635,628,cs),
(641,646,o),
(635,680,o),
(595,700,cs),
(533,731,o),
(503,686,o),
(493,662,cs),
(471,611,o),
(336,452,o),
(336,452,cs),
(165,683,ls),
(155,697,o),
(132,711,o),
(107,711,cs),
(93,711,o),
(78,707,o),
(64,695,cs),
(43,676,o),
(35,656,o),
(35,638,cs),
(35,620,o),
(44,603,o),
(55,590,cs),
(252,356,l),
(252,356,o),
(206,308,o),
(168,257,cs),
(147,228,o),
(68,110,o),
(56,72,cs),
(37,13,o),
(104,-11,o),
(136,-11,cs)
);
}
);
width = 667;
}
);
unicode = 88;
},
{
color = 1;
glyphname = Y;
lastChange = "2023-12-13 19:34:38 +0000";
layers = (
{
layerId = "2F065738-4B59-43EB-A5F2-FD5F277958EA";
shapes = (
{
closed = 1;
nodes = (
(380,282,o),
(399,272,o),
(472,301,cs),
(515,318,o),
(587,426,o),
(587,572,cs),
(587,633,o),
(575,709,o),
(508,709,cs),
(455,709,o),
(435,680,o),
(435,633,cs),
(435,639,o),
(443,565,o),
(443,536,cs),
(443,449,o),
(405,406,o),
(346,391,c),
(242,623,ls),
(215,683,o),
(196,709,o),
(151,709,cs),
(89,709,o),
(51,673,o),
(77,615,cs),
(181,379,ls),
(208,319,o),
(263,282,o),
(320,282,cs)
);
},
{
closed = 1;
nodes = (
(431,-12,o),
(529,64,o),
(529,205,cs),
(529,240,o),
(529,205,o),
(529,205,cs),
(529,205,o),
(386,193,o),
(386,193,cs),
(386,193,o),
(386,193,o),
(386,188,c),
(386,131,o),
(352,117,o),
(270,117,cs),
(233,117,o),
(173,119,o),
(139,119,cs),
(88,119,o),
(68,102,o),
(68,63,cs),
(68,35,o),
(83,21,o),
(111,10,cs),
(145,-4,o),
(208,-12,o),
(259,-12,cs)
);
},
{
closed = 1;
nodes = (
(529,196,l),
(530,341,o),
(440,384,o),
(265,384,c),
(264,303,l),
(343,303,o),
(386,262,o),
(386,180,c)
);
}
);
width = 600;
}
);
unicode = 89;
},
{
color = 6;
glyphname = Z;
lastChange = "2023-12-13 19:32:56 +0000";
layers = (
{
layerId = "2F065738-4B59-43EB-A5F2-FD5F277958EA";
shapes = (
{
closed = 1;
nodes = (
(487,-7,ls),
(525,-7,o),
(544,13,o),
(544,53,cs),
(544,94,o),
(525,115,o),
(487,115,cs),
(223,115,ls),
(218,115,o),
(246,109,o),
(275,164,cs),
(466,521,l),
(516,620,o),
(516,623,o),
(516,640,cs),
(516,682,o),
(492,700,o),
(447,700,cs),
(117,700,ls),
(79,700,o),
(60,680,o),
(60,640,cs),
(60,599,o),
(79,578,o),
(117,578,cs),
(355,578,ls),
(374,578,o),
(337,581,o),
(309,529,cs),
(230,384,o),
(150,238,o),
(71,93,c),
(69,75,o),
(68,64,o),
(68,53,cs),
(68,11,o),
(87,-7,o),
(132,-7,cs)
);
}
);
width = 604;
}
);
metricLeft = A;
metricRight = A;
unicode = 90;
},
{
color = 6;
glyphname = a;
lastChange = "2023-12-13 21:16:38 +0000";
layers = (
{
anchors = (
{
name = bottom;
pos = (258,0);
},
{
name = ogonek;
pos = (467,10);
},
{
name = top;
pos = (258,500);
}
);
background = {
shapes = (
{
pos = (-30,0);
ref = o;
}
);
};
hints = (
{
horizontal = 1;
place = (323,63);
type = Stem;
},
{
horizontal = 1;
place = (192,64);
type = Stem;
},
{
horizontal = 1;
place = (-21,72);
type = Stem;
},
{
place = (382,90);
type = Stem;
},
{
place = (51,90);
type = Stem;
},
{
horizontal = 1;
place = (186,-72);
type = Stem;
},
{
horizontal = 1;
place = (349,-72);
type = Stem;
},
{
horizontal = 1;
place = (524,-72);
type = Stem;
},
{
place = (146,-90);
type = Stem;
},
{
place = (473,-90);
type = Stem;
},
{
horizontal = 1;
place = (323,63);
type = Stem;
},
{
horizontal = 1;
place = (192,64);
type = Stem;
},
{
horizontal = 1;
place = (-21,72);
type = Stem;
},
{
place = (378,90);
type = Stem;
},
{
place = (47,90);
type = Stem;
},
{
horizontal = 1;
place = (186,-72);
type = Stem;
},
{
horizontal = 1;
place = (349,-72);
type = Stem;
},
{
horizontal = 1;
place = (524,-72);
type = Stem;
},
{
place = (123,-90);
type = Stem;
},
{
place = (450,-90);
type = Stem;
},
{
horizontal = 1;
place = (323,63);
type = Stem;
},
{
horizontal = 1;
place = (192,64);
type = Stem;
},
{
horizontal = 1;
place = (-21,72);
type = Stem;
},
{
place = (355,90);
type = Stem;
},
{
place = (24,90);
type = Stem;
}
);
layerId = "2F065738-4B59-43EB-A5F2-FD5F277958EA";
shapes = (
{
closed = 1;
nodes = (
(401,-10,o),
(458,72,o),
(458,251,cs),
(458,406,o),
(381,508,o),
(218,508,cs),
(115,508,o),
(70,483,o),
(70,428,cs),
(70,389,o),
(93,380,o),
(129,380,cs),
(168,380,o),
(184,391,o),
(235,391,cs),
(288,391,o),
(324,360,o),
(320,251,c),
(313,122,o),
(303,100,o),
(249,100,cs),
(198,100,o),
(172,120,o),
(172,157,cs),
(172,209,o),
(213,224,o),
(325,215,c),
(325,309,l),
(128,326,o),
(28,273,o),
(28,157,cs),
(28,58,o),
(107,-10,o),
(240,-10,cs)
);
}
);
width = 493;
}
);
metricRight = o;
note = a;
unicode = 97;
},
{
color = 6;
glyphname = b;
lastChange = "2023-12-13 21:10:53 +0000";
layers = (
{
anchors = (
{
name = bottom;
pos = (282,0);
},
{
name = center;
pos = (282,240);
},
{
name = top;
pos = (282,480);
}
);
background = {
shapes = (
{
pos = (21,0);
ref = o;
}
);
};
hints = (
{
horizontal = 1;
place = (724,-20);
target = down;
type = TopGhost;
},
{
horizontal = 1;
place = (314,72);
type = Stem;
},
{
horizontal = 1;
place = (-24,72);
type = Stem;
},
{
place = (389,90);
type = Stem;
},
{
place = (51,90);
type = Stem;
}
);
layerId = "2F065738-4B59-43EB-A5F2-FD5F277958EA";
shapes = (
{
closed = 1;
nodes = (
(429,-12,o),
(519,93,o),
(519,263,cs),
(519,414,o),
(434,508,o),
(315,508,cs),
(245,508,o),
(202,488,o),
(177,447,c),
(191,488,o),
(194,516,o),
(194,594,cs),
(194,684,ls),
(194,737,o),
(173,762,o),
(127,762,cs),
(79,762,o),
(54,735,o),
(54,684,cs),
(54,257,ls),
(54,87,o),
(138,-12,o),
(282,-12,cs)
);
},
{
closed = 1;
nodes = (
(233,109,o),
(200,161,o),
(200,250,cs),
(200,339,o),
(233,391,o),
(289,391,cs),
(345,391,o),
(378,339,o),
(378,250,cs),
(378,161,o),
(345,109,o),
(289,109,cs)
);
}
);
width = 554;
}
);
metricLeft = n;
metricRight = o;
note = b;
unicode = 98;
},
{
color = 6;
glyphname = c;
lastChange = "2023-12-13 21:13:37 +0000";
layers = (
{
anchors = (
{
name = bottom;
pos = (226,0);
},
{
name = top;
pos = (226,500);
}
);
background = {
shapes = (
{
closed = 1;
nodes = (
(378,-11,o),
(423,14,o),
(423,69,cs),
(423,108,o),
(400,117,o),
(364,117,cs),
(325,117,o),
(309,106,o),
(258,106,cs),
(205,106,o),
(179,177,o),
(179,246,cs),
(179,386,o),
(257,386,o),
(340,386,cs),
(388,386,o),
(412,405,o),
(412,442,cs),
(412,486,o),
(375,508,o),
(301,508,cs),
(158,508,o),
(35,457,o),
(35,245,cs),
(35,91,o),
(112,-11,o),
(275,-11,cs)
);
}
);
};
hints = (
{
horizontal = 1;
place = (314,72);
type = Stem;
},
{
horizontal = 1;
place = (-23,72);
type = Stem;
},
{
place = (390,89);
type = Stem;
},
{
place = (51,90);
type = Stem;
},
{
horizontal = 1;
place = (314,72);
type = Stem;
},
{
horizontal = 1;
place = (151,72);
type = Stem;
},
{
horizontal = 1;
place = (-24,72);
type = Stem;
},
{
place = (377,90);
type = Stem;
},
{
place = (50,90);
type = Stem;
},
{
horizontal = 1;
place = (177,-63);
type = Stem;
},
{
horizontal = 1;
place = (308,-64);
type = Stem;
},
{
horizontal = 1;
place = (521,-72);
type = Stem;
},
{
place = (145,-90);
type = Stem;
},
{
place = (476,-90);
type = Stem;
}
);
layerId = "2F065738-4B59-43EB-A5F2-FD5F277958EA";
shapes = (
{
closed = 1;
nodes = (
(378,-6,o),
(423,19,o),
(423,74,cs),
(423,113,o),
(400,122,o),
(364,122,cs),
(325,122,o),
(309,111,o),
(258,111,cs),
(205,111,o),
(179,182,o),
(179,251,cs),
(179,320,o),
(205,391,o),
(258,391,cs),
(309,391,o),
(325,380,o),
(364,380,cs),
(400,380,o),
(423,389,o),
(423,428,cs),
(423,483,o),
(378,508,o),
(275,508,cs),
(112,508,o),
(35,406,o),
(35,251,cs),
(35,96,o),
(112,-6,o),
(275,-6,cs)
);
}
);
width = 451;
}
);
metricLeft = o;
note = c;
unicode = 99;
},
{
color = 6;
glyphname = e;
lastChange = "2023-12-13 21:40:48 +0000";
layers = (
{
anchors = (
{
name = bottom;
pos = (278,0);
},
{
name = ogonek;
pos = (423,74);
},
{
name = top;
pos = (261,500);
}
);
background = {
shapes = (
{
pos = (-4,0);
ref = o;
}
);
};
hints = (
{
horizontal = 1;
place = (314,72);
type = Stem;
},
{
horizontal = 1;
place = (151,72);
type = Stem;
},
{
horizontal = 1;
place = (-24,72);
type = Stem;
},
{
place = (377,90);
type = Stem;
},
{
place = (50,90);
type = Stem;
},
{
horizontal = 1;
place = (177,-63);
type = Stem;
},
{
horizontal = 1;
place = (308,-64);
type = Stem;
},
{
horizontal = 1;
place = (521,-72);
type = Stem;
},
{
place = (145,-90);
type = Stem;
},
{
place = (476,-90);
type = Stem;
}
);
layerId = "2F065738-4B59-43EB-A5F2-FD5F277958EA";
shapes = (
{
closed = 1;
nodes = (
(398,-6,o),
(443,19,o),
(443,74,cs),
(443,113,o),
(420,122,o),
(384,122,cs),
(345,122,o),
(329,110,o),
(278,110,cs),
(186,110,o),
(177,182,o),
(173,259,c),
(179,376,o),
(208,407,o),
(258,407,cs),
(301,407,o),
(332,384,o),
(332,340,cs),
(332,300,o),
(307,287,o),
(228,287,cs),
(194,287,o),
(180,283,o),
(167,258,c),
(167,195,l),
(244,195,ls),
(395,195,o),
(472,241,o),
(472,336,cs),
(472,445,o),
(384,512,o),
(260,512,cs),
(120,512,o),
(35,426,o),
(35,246,cs),
(35,96,o),
(95,-6,o),
(295,-6,cs)
);
}
);
width = 500;
}
);
metricLeft = o;
note = e;
unicode = 101;
},
{
color = 6;
glyphname = f;
lastChange = "2023-12-13 21:17:25 +0000";
layers = (
{
background = {
anchors = (
{
name = bottom;
pos = (576,0);
},
{
name = top;
pos = (576,742);
}
);
};
hints = (
{
horizontal = 1;
place = (652,73);
type = Stem;
},
{
horizontal = 1;
place = (315,73);
type = Stem;
},
{
horizontal = 1;
place = (-24,21);
target = up;
type = BottomGhost;
},
{
place = (51,90);
type = Stem;
}
);
layerId = "2F065738-4B59-43EB-A5F2-FD5F277958EA";
shapes = (
{
closed = 1;
nodes = (
(228,-11,o),
(253,15,o),
(253,68,cs),
(253,379,l),
(310,379,ls),
(354,379,o),
(378,400,o),
(378,439,cs),
(378,478,o),
(354,500,o),
(310,500,cs),
(253,500,l),
(253,569,o),
(266,640,o),
(292,640,cs),
(343,640,o),
(359,629,o),
(398,629,cs),
(434,629,o),
(457,638,o),
(457,677,cs),
(457,732,o),
(412,757,o),
(309,757,cs),
(173,757,o),
(109,655,o),
(109,500,c),
(99,500,ls),
(49,500,o),
(25,478,o),
(25,439,cs),
(25,400,o),
(49,379,o),
(99,379,cs),
(109,379,l),
(109,68,ls),
(109,24,o),
(134,-11,o),
(183,-11,cs)
);
}
);
width = 363;
}
);
note = f;
unicode = 102;
},
{
color = 6;
glyphname = g;
lastChange = "2023-12-13 21:26:37 +0000";
layers = (
{
anchors = (
{
name = bottom;
pos = (257,-258);
},
{
name = top;
pos = (257,480);
}
);
background = {
shapes = (
{
closed = 1;
nodes = (
(402,-230,o),
(494,-175,o),
(494,-60,cs),
(494,6,o),
(472,48,o),
(423,78,c),
(472,116,o),
(494,173,o),
(494,262,cs),
(494,429,o),
(417,512,o),
(263,512,cs),
(109,512,o),
(32,430,o),
(32,263,cs),
(32,98,o),
(107,18,o),
(262,18,cs),
(318,18,o),
(350,-9,o),
(350,-55,cs),
(350,-96,o),
(310,-112,o),
(206,-112,cs),
(91,-112,o),
(64,-122,o),
(64,-167,cs),
(64,-220,o),
(88,-230,o),
(211,-230,cs)
);
},
{
closed = 1;
nodes = (
(200,138,o),
(176,173,o),
(176,263,cs),
(176,354,o),
(201,392,o),
(263,392,cs),
(325,392,o),
(350,354,o),
(350,263,cs),
(350,173,o),
(326,138,o),
(263,138,cs)
);
},
{
closed = 1;
nodes = (
(388,404,o),
(427,432,o),
(480,432,cs),
(544,432,o),
(570,450,o),
(570,496,cs),
(570,545,o),
(541,572,o),
(491,572,cs),
(439,572,o),
(405,543,o),
(384,481,c),
(388,365,l)
);
},
{
pos = (-4,0);
ref = o;
}
);
};
hints = (
{
place = (389,90);
type = Stem;
},
{
place = (314,72);
type = Stem;
},
{
place = (51,90);
type = Stem;
},
{
place = (-24,72);
type = Stem;
},
{
place = (-362,72);
type = Stem;
}
);
layerId = "2F065738-4B59-43EB-A5F2-FD5F277958EA";
shapes = (
{
closed = 1;
nodes = (
(383,-230,o),
(494,-174,o),
(494,-61,cs),
(494,0,o),
(469,54,o),
(403,78,c),
(472,116,o),
(494,173,o),
(494,262,cs),
(494,429,o),
(417,512,o),
(263,512,cs),
(109,512,o),
(32,430,o),
(32,263,cs),
(32,98,o),
(107,18,o),
(262,18,cs),
(313,18,o),
(350,-10,o),
(350,-51,cs),
(350,-101,o),
(307,-112,o),
(202,-112,cs),
(151,-112,o),
(135,-102,o),
(96,-102,cs),
(60,-102,o),
(37,-111,o),
(37,-150,cs),
(37,-205,o),
(82,-230,o),
(185,-230,cs)
);
},
{
closed = 1;
nodes = (
(205,138,o),
(176,179,o),
(176,263,cs),
(176,349,o),
(205,392,o),
(263,392,cs),
(321,392,o),
(350,349,o),
(350,263,cs),
(350,179,o),
(321,138,o),
(263,138,cs)
);
},
{
closed = 1;
nodes = (
(388,367,ls),
(390,413,o),
(428,432,o),
(486,432,cs),
(544,432,o),
(570,450,o),
(570,496,cs),
(570,545,o),
(541,572,o),
(491,572,cs),
(439,572,o),
(405,543,o),
(389,481,c),
(388,365,l)
);
}
);
width = 558;
}
);
note = g;
unicode = 103;
},
{
color = 0;
glyphname = h;
lastChange = "2023-12-13 20:45:11 +0000";
layers = (
{
anchors = (
{
name = bottom;
pos = (295,0);
}
);
background = {
shapes = (
{
pos = (6,0);
ref = n;
}
);
};
hints = (
{
horizontal = 1;
place = (724,-20);
target = down;
type = TopGhost;
},
{
horizontal = 1;
place = (313,71);
type = Stem;
},
{
horizontal = 1;
place = (-20,21);
target = up;
type = BottomGhost;
},
{
horizontal = 1;
place = (-24,21);
target = up;
type = BottomGhost;
},
{
place = (387,90);
type = Stem;
},
{
place = (51,90);
type = Stem;
},
{
horizontal = 1;
place = (314,72);
type = Stem;
},
{
horizontal = 1;
place = (-22,21);
target = up;
type = BottomGhost;
},
{
horizontal = 1;
place = (-23,21);
target = up;
type = BottomGhost;
},
{
place = (344,90);
type = Stem;
},
{
place = (13,90);
type = Stem;
}
);
layerId = "2F065738-4B59-43EB-A5F2-FD5F277958EA";
shapes = (
{
closed = 1;
nodes = (
(180,-7,o),
(204,15,o),
(204,61,cs),
(204,293,ls),
(204,354,o),
(234,391,o),
(283,391,cs),
(334,391,o),
(364,355,o),
(364,293,cs),
(364,61,ls),
(364,15,o),
(388,-7,o),
(436,-7,cs),
(484,-7,o),
(508,15,o),
(508,61,cs),
(508,299,ls),
(508,426,o),
(420,512,o),
(289,512,cs),
(239,512,o),
(202,497,o),
(179,469,c),
(198,506,o),
(205,539,o),
(205,577,cs),
(205,683,ls),
(205,735,o),
(181,761,o),
(133,761,cs),
(85,761,o),
(60,735,o),
(60,683,cs),
(60,61,ls),
(60,15,o),
(84,-7,o),
(132,-7,cs)
);
}
);
width = 562;
}
);
metricRight = n;
note = h;
unicode = 104;
},
{
color = 6;
glyphname = i;
lastChange = "2023-12-13 20:21:39 +0000";
layers = (
{
anchors = (
{
name = bottom;
pos = (141,0);
}
);
hints = (
{
horizontal = 1;
place = (547,39);
type = Stem;
},
{
horizontal = 1;
place = (448,40);
type = Stem;
},
{
horizontal = 1;
place = (-21,21);
target = up;
type = BottomGhost;
},
{
place = (166,41);
type = Stem;
},
{
place = (84,90);
type = Stem;
},
{
place = (50,42);
type = Stem;
}
);
layerId = "2F065738-4B59-43EB-A5F2-FD5F277958EA";
shapes = (
{
closed = 1;
nodes = (
(193,-8,o),
(213,18,o),
(213,60,cs),
(213,440,ls),
(213,482,o),
(193,508,o),
(141,508,cs),
(89,508,o),
(69,482,o),
(69,440,cs),
(69,60,ls),
(69,18,o),
(89,-8,o),
(141,-8,cs)
);
},
{
closed = 1;
nodes = (
(191,594,o),
(228,630,o),
(228,677,cs),
(228,726,o),
(191,762,o),
(141,762,cs),
(91,762,o),
(54,726,o),
(54,677,cs),
(54,630,o),
(91,594,o),
(141,594,cs)
);
}
);
width = 282;
}
);
note = i;
unicode = 105;
},
{
color = 6;
glyphname = j;
lastChange = "2023-12-13 21:21:52 +0000";
layers = (
{
guides = (
{
angle = 90;
pos = (156,678);
}
);
layerId = "2F065738-4B59-43EB-A5F2-FD5F277958EA";
shapes = (
{
closed = 1;
nodes = (
(157,-230,o),
(223,-128,o),
(223,27,cs),
(223,429,ls),
(223,474,o),
(203,508,o),
(151,508,cs),
(107,508,o),
(83,484,o),
(83,429,cs),
(83,7,ls),
(83,-52,o),
(73,-113,o),
(44,-113,cs),
(11,-113,o),
(-4,-102,o),
(-41,-102,cs),
(-77,-102,o),
(-100,-111,o),
(-100,-150,cs),
(-100,-205,o),
(-65,-230,o),
(17,-230,cs)
);
},
{
closed = 1;
nodes = (
(201,594,o),
(238,630,o),
(238,677,cs),
(238,726,o),
(201,762,o),
(151,762,cs),
(101,762,o),
(64,726,o),
(64,677,cs),
(64,630,o),
(101,594,o),
(151,594,cs)
);
}
);
width = 292;
}
);
metricRight = i;
unicode = 106;
},
{
color = 6;
glyphname = k;
lastChange = "2023-12-13 20:39:10 +0000";
layers = (
{
background = {
shapes = (
{
closed = 1;
nodes = (
(485,-11,o),
(510,11,o),
(510,57,cs),
(510,262,o),
(409,323,o),
(282,323,cs),
(203,323,o),
(140,302,o),
(101,244,c),
(202,64,l),
(203,161,o),
(231,204,o),
(282,204,cs),
(333,204,o),
(366,159,o),
(366,57,cs),
(366,11,o),
(391,-11,o),
(439,-11,cs)
);
},
{
closed = 1;
nodes = (
(182,-11,o),
(202,17,o),
(204,61,cs),
(204,63,o),
(204,65,o),
(204,67,cs),
(204,683,ls),
(204,731,o),
(184,761,o),
(132,761,cs),
(80,761,o),
(60,731,o),
(60,683,cs),
(60,67,ls),
(60,19,o),
(80,-11,o),
(132,-11,cs)
);
},
{
closed = 1;
nodes = (
(393,307,o),
(481,372,o),
(499,467,cs),
(504,493,o),
(499,523,o),
(462,542,cs),
(427,560,o),
(382,560,o),
(367,522,cs),
(327,422,o),
(270,353,o),
(163,289,c),
(169,326,l),
(147,288,l),
(248,279,l),
(259,285,o),
(287,251,o),
(301,258,c)
);
}
);
};
layerId = "2F065738-4B59-43EB-A5F2-FD5F277958EA";
shapes = (
{
closed = 1;
nodes = (
(485,-7,o),
(510,15,o),
(510,61,cs),
(510,193,o),
(458,257,o),
(381,284,c),
(437,322,o),
(491,386,o),
(491,441,cs),
(491,487,o),
(443,512,o),
(407,512,cs),
(385,512,o),
(366,503,o),
(357,480,cs),
(328,408,o),
(280,358,o),
(204,312,c),
(204,683,ls),
(204,731,o),
(184,761,o),
(132,761,cs),
(80,761,o),
(60,731,o),
(60,683,cs),
(60,71,ls),
(60,23,o),
(80,-7,o),
(132,-7,cs),
(182,-7,o),
(204,9,o),
(204,86,cs),
(204,171,o),
(235,201,o),
(282,201,cs),
(333,201,o),
(366,158,o),
(366,61,cs),
(366,15,o),
(391,-7,o),
(439,-7,cs)
);
}
);
width = 550;
}
);
metricLeft = h;
unicode = 107;
},
{
color = 6;
glyphname = l;
lastChange = "2023-12-13 20:19:05 +0000";
layers = (
{
layerId = "2F065738-4B59-43EB-A5F2-FD5F277958EA";
shapes = (
{
closed = 1;
nodes = (
(178,-12,o),
(198,18,o),
(198,66,cs),
(198,684,ls),
(198,732,o),
(178,762,o),
(126,762,cs),
(74,762,o),
(54,732,o),
(54,684,cs),
(54,66,ls),
(54,18,o),
(74,-12,o),
(126,-12,cs)
);
}
);
width = 252;
}
);
metricLeft = n;
metricRight = n;
unicode = 108;
},
{
color = 6;
glyphname = m;
lastChange = "2023-12-13 20:52:37 +0000";
layers = (
{
hints = (
{
horizontal = 1;
place = (313,72);
type = Stem;
},
{
horizontal = 1;
place = (-21,21);
target = up;
type = BottomGhost;
},
{
horizontal = 1;
place = (-22,21);
target = up;
type = BottomGhost;
},
{
place = (638,89);
type = Stem;
},
{
place = (343,92);
type = Stem;
},
{
place = (51,91);
type = Stem;
},
{
horizontal = 1;
place = (314,72);
type = Stem;
},
{
horizontal = 1;
place = (-22,21);
target = up;
type = BottomGhost;
},
{
horizontal = 1;
place = (-23,21);
target = up;
type = BottomGhost;
},
{
place = (382,90);
type = Stem;
},
{
place = (51,90);
type = Stem;
}
);
layerId = "2F065738-4B59-43EB-A5F2-FD5F277958EA";
shapes = (
{
closed = 1;
nodes = (
(175,-7,o),
(198,15,o),
(198,61,cs),
(198,292,ls),
(198,360,o),
(220,391,o),
(268,391,cs),
(318,391,o),
(340,360,o),
(340,292,cs),
(340,64,ls),
(340,18,o),
(363,-4,o),
(410,-4,cs),
(457,-4,o),
(480,18,o),
(480,64,cs),
(480,292,ls),
(480,360,o),
(502,391,o),
(552,391,cs),
(600,391,o),
(622,360,o),
(622,292,cs),
(622,61,ls),
(622,15,o),
(645,-7,o),
(694,-7,cs),
(743,-7,o),
(766,15,o),
(766,61,cs),
(766,300,ls),
(766,436,o),
(699,511,o),
(578,511,cs),
(493,511,o),
(440,483,o),
(410,422,c),
(380,483,o),
(327,511,o),
(242,511,cs),
(121,511,o),
(54,436,o),
(54,300,cs),
(54,61,ls),
(54,15,o),
(77,-7,o),
(126,-7,cs)
);
}
);
width = 820;
}
);
metricLeft = n;
metricRight = n;
note = m;
unicode = 109;
},
{
color = 6;
glyphname = n;
lastChange = "2023-12-13 20:19:52 +0000";
layers = (
{
anchors = (
{
name = bottom;
pos = (278,0);
},
{
name = top;
pos = (278,480);
}
);
background = {
shapes = (
{
pos = (14,0);
ref = o;
}
);
};
hints = (
{
horizontal = 1;
place = (314,72);
type = Stem;
},
{
horizontal = 1;
place = (-22,21);
target = up;
type = BottomGhost;
},
{
horizontal = 1;
place = (-23,21);
target = up;
type = BottomGhost;
},
{
place = (382,90);
type = Stem;
},
{
place = (51,90);
type = Stem;
}
);
layerId = "2F065738-4B59-43EB-A5F2-FD5F277958EA";
shapes = (
{
closed = 1;
nodes = (
(175,-7,o),
(198,15,o),
(198,61,cs),
(198,292,ls),
(198,355,o),
(227,391,o),
(278,391,cs),
(329,391,o),
(358,355,o),
(358,292,cs),
(358,61,ls),
(358,15,o),
(381,-7,o),
(430,-7,cs),
(479,-7,o),
(502,15,o),
(502,61,cs),
(502,300,ls),
(502,428,o),
(413,511,o),
(278,511,cs),
(143,511,o),
(54,428,o),
(54,300,cs),
(54,61,ls),
(54,15,o),
(77,-7,o),
(126,-7,cs)
);
}
);
width = 556;
}
);
note = n;
unicode = 110;
},
{
color = 6;
glyphname = o;
lastChange = "2023-12-13 19:32:56 +0000";
layers = (
{
anchors = (
{
name = bottom;
pos = (266,0);
},
{
name = center;
pos = (266,240);
},
{
name = ogonek;
pos = (500,10);
},
{
name = top;
pos = (266,480);
},
{
name = topright;
pos = (527,480);
}
);
hints = (
{
horizontal = 1;
place = (314,72);
type = Stem;
},
{
horizontal = 1;
place = (-26,72);
type = Stem;
},
{
place = (377,90);
type = Stem;
},
{
place = (50,90);
type = Stem;
}
);
layerId = "2F065738-4B59-43EB-A5F2-FD5F277958EA";
shapes = (
{
closed = 1;
nodes = (
(409,-11,o),
(497,88,o),
(497,250,cs),
(497,412,o),
(409,511,o),
(266,511,cs),
(123,511,o),
(35,412,o),
(35,250,cs),
(35,88,o),
(123,-11,o),
(266,-11,cs)
);
},
{
closed = 1;
nodes = (
(211,109,o),
(179,160,o),
(179,250,cs),
(179,340,o),
(211,391,o),
(266,391,cs),
(321,391,o),
(353,340,o),
(353,250,cs),
(353,160,o),
(321,109,o),
(266,109,cs)
);
}
);
width = 532;
}
);
note = o;
unicode = 111;
},
{
color = 6;
glyphname = p;
lastChange = "2023-12-13 21:01:52 +0000";
layers = (
{
anchors = (
{
name = bottom;
pos = (286,0);
},
{
name = top;
pos = (286,500);
}
);
hints = (
{
horizontal = 1;
place = (512,21);
target = up;
type = BottomGhost;
},
{
horizontal = 1;
place = (512,-72);
type = Stem;
},
{
horizontal = 1;
place = (512,-72);
type = Stem;
},
{
place = (299,-90);
type = Stem;
},
{
place = (299,-90);
type = Stem;
}
);
layerId = "2F065738-4B59-43EB-A5F2-FD5F277958EA";
shapes = (
{
closed = 1;
nodes = (
(173,-230,o),
(194,-205,o),
(194,-152,cs),
(194,-94,ls),
(194,-16,o),
(191,12,o),
(177,53,c),
(202,12,o),
(245,-8,o),
(315,-8,cs),
(434,-8,o),
(519,86,o),
(519,237,cs),
(519,407,o),
(429,512,o),
(282,512,cs),
(138,512,o),
(54,413,o),
(54,242,cs),
(54,-152,ls),
(54,-203,o),
(79,-230,o),
(127,-230,cs)
);
},
{
closed = 1;
nodes = (
(233,109,o),
(200,161,o),
(200,250,cs),
(200,339,o),
(233,391,o),
(289,391,cs),
(345,391,o),
(378,339,o),
(378,250,cs),
(378,161,o),
(345,109,o),
(289,109,cs)
);
}
);
width = 554;
}
);
metricLeft = b;
metricRight = b;
unicode = 112;
},
{
color = 6;
glyphname = q;
lastChange = "2023-12-13 21:01:57 +0000";
layers = (
{
anchors = (
{
name = bottom;
pos = (263,0);
},
{
name = top;
pos = (263,500);
}
);
annotations = (
{
pos = (520.77,566.09);
type = Text;
}
);
hints = (
{
horizontal = 1;
place = (-224,21);
target = up;
type = BottomGhost;
},
{
horizontal = 1;
place = (186,-72);
type = Stem;
},
{
horizontal = 1;
place = (524,-72);
type = Stem;
},
{
place = (174,-90);
type = Stem;
},
{
place = (512,-90);
type = Stem;
},
{
place = (960,90);
type = Stem;
},
{
place = (885,72);
type = Stem;
},
{
place = (622,90);
type = Stem;
},
{
place = (547,72);
type = Stem;
},
{
place = (209,72);
type = Stem;
}
);
layerId = "2F065738-4B59-43EB-A5F2-FD5F277958EA";
shapes = (
{
closed = 1;
nodes = (
(475,-230,o),
(500,-203,o),
(500,-152,cs),
(500,242,ls),
(500,413,o),
(416,512,o),
(272,512,cs),
(125,512,o),
(35,407,o),
(35,237,cs),
(35,86,o),
(120,-8,o),
(239,-8,cs),
(309,-8,o),
(352,12,o),
(377,53,c),
(363,12,o),
(360,-16,o),
(360,-94,cs),
(360,-152,ls),
(360,-205,o),
(381,-230,o),
(427,-230,cs)
);
},
{
closed = 1;
nodes = (
(209,109,o),
(176,161,o),
(176,250,cs),
(176,339,o),
(209,391,o),
(265,391,cs),
(321,391,o),
(354,339,o),
(354,250,cs),
(354,161,o),
(321,109,o),
(265,109,cs)
);
}
);
width = 554;
}
);
metricLeft = d;
metricRight = d;
unicode = 113;
},
{
color = 6;
glyphname = r;
lastChange = "2023-12-13 20:22:52 +0000";
layers = (
{
hints = (
{
horizontal = 1;
place = (315,72);
type = Stem;
},
{
horizontal = 1;
place = (-24,21);
target = up;
type = BottomGhost;
},
{
place = (51,92);
type = Stem;
}
);
layerId = "2F065738-4B59-43EB-A5F2-FD5F277958EA";
shapes = (
{
closed = 1;
nodes = (
(174,-7,o),
(198,15,o),
(198,61,cs),
(198,264,ls),
(198,347,o),
(225,371,o),
(320,371,cs),
(384,371,o),
(410,389,o),
(410,436,cs),
(410,485,o),
(382,509,o),
(324,509,cs),
(264,509,o),
(218,484,o),
(194,440,c),
(194,487,o),
(174,507,o),
(126,507,cs),
(78,507,o),
(54,485,o),
(54,439,cs),
(54,61,ls),
(54,15,o),
(78,-7,o),
(126,-7,cs)
);
}
);
width = 410;
}
);
metricLeft = n;
note = r;
unicode = 114;
},
{
color = 6;
glyphname = s;
lastChange = "2023-12-13 21:44:53 +0000";
layers = (
{
anchors = (
{
name = bottom;
pos = (254,0);
},
{
name = top;
pos = (254,480);
}
);
background = {
anchors = (
{
name = bottom;
pos = (254,0);
},
{
name = top;
pos = (254,480);
}
);
annotations = (
{
pos = (8,-111);
type = Text;
}
);
};
hints = (
{
horizontal = 1;
place = (314,72);
type = Stem;
},
{
horizontal = 1;
place = (151,72);
type = Stem;
},
{
horizontal = 1;
place = (-24,71);
type = Stem;
},
{
place = (378,90);
type = Stem;
},
{
place = (50,90);
type = Stem;
}
);
layerId = "2F065738-4B59-43EB-A5F2-FD5F277958EA";
shapes = (
{
closed = 1;
nodes = (
(351,-12,o),
(427,50,o),
(427,143,cs),
(427,223,o),
(382,273,o),
(283,302,cs),
(211,323,o),
(191,338,o),
(191,365,cs),
(191,387,o),
(206,399,o),
(239,399,cs),
(261,399,o),
(282,394,o),
(301,388,cs),
(326,381,o),
(344,377,o),
(357,377,cs),
(389,377,o),
(409,401,o),
(409,433,cs),
(409,484,o),
(351,512,o),
(255,512,cs),
(127,512,o),
(49,456,o),
(49,355,cs),
(49,283,o),
(93,233,o),
(180,208,cs),
(269,182,o),
(283,174,o),
(283,140,cs),
(283,112,o),
(265,101,o),
(217,101,cs),
(192,101,o),
(162,108,o),
(146,113,cs),
(109,125,o),
(102,127,o),
(89,127,cs),
(58,127,o),
(38,105,o),
(38,71,cs),
(38,17,o),
(102,-12,o),
(226,-12,cs)
);
}
);
width = 467;
}
);
note = s;
unicode = 115;
},
{
color = 6;
glyphname = t;
lastChange = "2023-12-13 21:20:29 +0000";
layers = (
{
anchors = (
{
name = bottom;
pos = (205,0);
},
{
name = center;
pos = (205,250);
},
{
name = top;
pos = (205,500);
},
{
name = topright;
pos = (390,750);
}
);
hints = (
{
horizontal = 1;
place = (724,-20);
target = down;
type = TopGhost;
},
{
horizontal = 1;
place = (314,72);
type = Stem;
},
{
horizontal = 1;
place = (-25,73);
type = Stem;
},
{
place = (51,90);
type = Stem;
}
);
layerId = "2F065738-4B59-43EB-A5F2-FD5F277958EA";
shapes = (
{
closed = 1;
nodes = (
(364,-6,o),
(397,19,o),
(397,74,cs),
(397,113,o),
(374,122,o),
(338,122,cs),
(316,122,o),
(308,115,o),
(280,115,cs),
(258,115,o),
(250,130,o),
(250,170,cs),
(250,378,l),
(301,378,ls),
(345,378,o),
(369,400,o),
(369,439,cs),
(369,478,o),
(345,499,o),
(301,499,cs),
(238,499,l),
(245,513,o),
(250,539,o),
(250,561,cs),
(250,610,ls),
(250,655,o),
(223,683,o),
(180,683,cs),
(136,683,o),
(106,652,o),
(106,608,cs),
(106,499,l),
(80,499,ls),
(36,499,o),
(12,478,o),
(12,439,cs),
(12,400,o),
(36,378,o),
(80,378,cs),
(106,378,l),
(106,173,ls),
(106,51,o),
(164,-6,o),
(288,-6,cs)
);
}
);
width = 406;
}
);
note = t;
unicode = 116;
},
{
color = 6;
glyphname = u;
lastChange = "2023-12-13 20:20:05 +0000";
layers = (
{
background = {
shapes = (
{
pos = (14,0);
ref = o;
},
{
closed = 1;
nodes = (
(431,-11,o),
(509,65,o),
(509,212,cs),
(509,428,ls),
(509,480,o),
(485,506,o),
(437,506,cs),
(389,506,o),
(365,480,o),
(365,428,cs),
(365,208,ls),
(365,148,o),
(331,109,o),
(280,109,cs),
(229,109,o),
(195,148,o),
(195,208,cs),
(195,428,ls),
(195,480,o),
(171,506,o),
(123,506,cs),
(75,506,o),
(51,480,o),
(51,428,cs),
(51,212,ls),
(51,65,o),
(129,-11,o),
(280,-11,cs)
);
}
);
};
hints = (
{
horizontal = 1;
place = (-24,72);
type = Stem;
},
{
horizontal = 1;
place = (-2,21);
target = up;
type = BottomGhost;
},
{
place = (380,92);
type = Stem;
},
{
place = (51,90);
type = Stem;
},
{
horizontal = 1;
place = (506,-72);
type = Stem;
},
{
horizontal = 1;
place = (506,-20);
target = down;
type = TopGhost;
},
{
horizontal = 1;
place = (506,-20);
target = down;
type = TopGhost;
},
{
place = (135,-90);
type = Stem;
},
{
place = (135,-90);
type = Stem;
},
{
horizontal = 1;
origin = (0,20);
place = (507,-72);
type = Stem;
},
{
horizontal = 1;
origin = (0,20);
target = down;
type = TopGhost;
},
{
horizontal = 1;
origin = (0,20);
target = down;
type = TopGhost;
},
{
origin = (0,20);
place = (126,-90);
type = Stem;
},
{
origin = (0,20);
place = (126,-90);
type = Stem;
}
);
layerId = "2F065738-4B59-43EB-A5F2-FD5F277958EA";
shapes = (
{
closed = 1;
nodes = (
(408,-11,o),
(496,75,o),
(496,206,cs),
(496,439,ls),
(496,485,o),
(473,507,o),
(424,507,cs),
(375,507,o),
(352,485,o),
(352,439,cs),
(352,208,ls),
(352,145,o),
(324,109,o),
(275,109,cs),
(226,109,o),
(198,145,o),
(198,208,cs),
(198,439,ls),
(198,485,o),
(175,507,o),
(126,507,cs),
(77,507,o),
(54,485,o),
(54,439,cs),
(54,206,ls),
(54,75,o),
(142,-11,o),
(275,-11,cs)
);
}
);
width = 550;
}
);
metricLeft = n;
metricRight = n;
note = u;
unicode = 117;
},
{
color = 1;
glyphname = v;
lastChange = "2023-12-13 21:58:03 +0000";
layers = (
{
layerId = "2F065738-4B59-43EB-A5F2-FD5F277958EA";
shapes = (
{
closed = 1;
nodes = (
(286,-11,o),
(315,10,o),
(379,105,cs),
(448,207,o),
(484,275,o),
(489,371,cs),
(491,399,o),
(491,429,o),
(485,465,cs),
(481,491,o),
(459,511,o),
(418,511,cs),
(377,511,o),
(337,486,o),
(342,446,cs),
(345,422,o),
(346,407,o),
(346,375,cs),
(344,314,o),
(327,245,o),
(261,142,c),
(157,466,ls),
(149,493,o),
(130,511,o),
(97,511,cs),
(61,511,o),
(19,491,o),
(16,446,cs),
(16,436,o),
(17,424,o),
(21,414,cs),
(132,94,ls),
(162,8,o),
(191,-11,o),
(243,-11,cs)
);
}
);
width = 503;
}
);
unicode = 118;
},
{
color = 1;
glyphname = w;
lastChange = "2023-12-13 22:00:56 +0000";
layers = (
{
background = {
shapes = (
{
closed = 1;
nodes = (
(546,-11,o),
(578,6,o),
(621,83,cs),
(702,227,o),
(716,350,o),
(704,449,cs),
(699,491,o),
(673,511,o),
(632,511,cs),
(591,511,o),
(553,486,o),
(561,439,cs),
(579,335,o),
(560,256,o),
(519,142,c),
(420,448,ls),
(405,493,o),
(384,511,o),
(351,511,cs),
(315,511,o),
(274,491,o),
(274,446,cs),
(274,436,o),
(276,424,o),
(280,414,cs),
(392,94,ls),
(423,6,o),
(457,-11,o),
(509,-11,cs)
);
},
{
closed = 1;
nodes = (
(258,-11,o),
(290,6,o),
(333,83,cs),
(390,184,o),
(423,275,o),
(423,371,cs),
(423,440,o),
(423,511,o),
(344,511,cs),
(303,511,o),
(272,446,o),
(274,436,cs),
(291,342,o),
(268,244,o),
(231,142,c),
(126,466,ls),
(117,493,o),
(96,511,o),
(63,511,cs),
(27,511,o),
(-14,491,o),
(-14,446,cs),
(-14,436,o),
(-12,424,o),
(-8,414,cs),
(104,94,ls),
(135,6,o),
(169,-11,o),
(221,-11,cs)
);
}
);
};
layerId = "2F065738-4B59-43EB-A5F2-FD5F277958EA";
shapes = (
{
closed = 1;
nodes = (
(261,-7,o),
(297,21,o),
(332,85,cs),
(354,123,o),
(367,165,o),
(373,193,c),
(400,86,ls),
(415,23,o),
(444,-7,o),
(491,-7,cs),
(538,-7,o),
(579,23,o),
(616,84,cs),
(665,166,o),
(703,297,o),
(706,394,cs),
(709,473,o),
(687,507,o),
(634,507,cs),
(590,507,o),
(563,484,o),
(563,445,cs),
(563,423,o),
(571,400,o),
(570,359,cs),
(569,309,o),
(554,224,o),
(512,142,c),
(426,441,ls),
(414,483,o),
(391,504,o),
(355,504,cs),
(316,504,o),
(289,479,o),
(286,439,cs),
(283,402,o),
(303,388,o),
(303,344,cs),
(303,287,o),
(270,207,o),
(234,142,c),
(142,462,ls),
(134,491,o),
(112,507,o),
(82,507,cs),
(41,507,o),
(9,481,o),
(8,447,cs),
(7,433,o),
(10,420,o),
(20,387,cs),
(114,95,ls),
(137,22,o),
(165,-7,o),
(214,-7,cs)
);
}
);
width = 718;
}
);
unicode = 119;
},
{
color = 1;
glyphname = x;
lastChange = "2023-12-13 19:34:34 +0000";
layers = (
{
background = {
shapes = (
{
pos = (6,0);
ref = v;
}
);
};
layerId = "2F065738-4B59-43EB-A5F2-FD5F277958EA";
shapes = (
{
closed = 1;
nodes = (
(422,-10,o),
(437,-6,o),
(451,6,cs),
(471,24,o),
(479,44,o),
(479,62,cs),
(479,81,o),
(470,98,o),
(460,110,cs),
(326,277,l),
(283,323,l),
(158,483,ls),
(147,497,o),
(125,511,o),
(100,511,cs),
(86,511,o),
(71,507,o),
(57,495,cs),
(36,476,o),
(28,456,o),
(28,438,cs),
(28,420,o),
(38,403,o),
(48,390,cs),
(172,231,l),
(210,191,l),
(350,18,ls),
(362,4,o),
(383,-10,o),
(408,-10,cs)
);
},
{
closed = 1;
nodes = (
(134,-10,o),
(151,4,o),
(163,31,cs),
(187,84,o),
(232,155,o),
(264,181,c),
(172,270,l),
(81,189,o),
(25,108,o),
(25,56,cs),
(25,9,o),
(73,-10,o),
(105,-10,cs)
);
},
{
closed = 1;
nodes = (
(430,322,o),
(474,389,o),
(474,441,cs),
(474,488,o),
(436,511,o),
(396,511,cs),
(367,511,o),
(345,492,o),
(332,461,cs),
(313,417,o),
(278,359,o),
(234,319,c),
(336,234,l)
);
}
);
width = 504;
}
);
unicode = 120;
},
{
color = 1;
glyphname = y;
lastChange = "2023-12-13 21:26:13 +0000";
layers = (
{
background = {
shapes = (
{
closed = 1;
nodes = (
(314,-11,o),
(342,10,o),
(401,105,cs),
(464,206,o),
(493,275,o),
(493,371,cs),
(493,399,o),
(492,429,o),
(484,465,cs),
(478,491,o),
(455,511,o),
(414,511,cs),
(373,511,o),
(335,486,o),
(342,446,cs),
(346,422,o),
(348,407,o),
(349,375,cs),
(351,314,o),
(338,245,o),
(281,142,c),
(156,466,ls),
(146,493,o),
(126,511,o),
(93,511,cs),
(57,511,o),
(16,491,o),
(16,446,cs),
(16,436,o),
(18,424,o),
(22,414,cs),
(154,94,ls),
(189,8,o),
(219,-11,o),
(271,-11,cs)
);
},
{
closed = 1;
nodes = (
(223,-101,o),
(197,-112,o),
(135,-112,cs),
(84,-112,o),
(68,-102,o),
(29,-102,cs),
(-7,-102,o),
(-30,-111,o),
(-30,-150,cs),
(-30,-205,o),
(15,-230,o),
(118,-230,cs),
(288,-230,o),
(367,-177,o),
(367,-55,cs),
(367,-13,o),
(348,58,o),
(288,78,c),
(202,13,l),
(214,-1,o),
(223,-28,o),
(223,-51,cs)
);
}
);
};
layerId = "2F065738-4B59-43EB-A5F2-FD5F277958EA";
shapes = (
{
closed = 1;
nodes = (
(299,-230,o),
(365,-166,o),
(365,-75,cs),
(365,-33,o),
(351,10,o),
(328,34,c),
(360,45,o),
(397,93,o),
(405,104,cs),
(456,173,o),
(492,290,o),
(492,394,cs),
(492,411,o),
(491,442,o),
(484,464,cs),
(475,493,o),
(456,511,o),
(417,511,cs),
(374,511,o),
(336,489,o),
(342,446,cs),
(343,439,o),
(348,413,o),
(349,375,cs),
(351,314,o),
(338,245,o),
(281,142,c),
(156,466,ls),
(146,493,o),
(126,511,o),
(93,511,cs),
(57,511,o),
(16,491,o),
(16,446,cs),
(16,436,o),
(18,424,o),
(22,414,cs),
(147,111,ls),
(201,-20,o),
(213,-55,o),
(213,-78,cs),
(213,-103,o),
(198,-112,o),
(160,-112,cs),
(120,-112,o),
(96,-102,o),
(59,-102,cs),
(23,-102,o),
(0,-111,o),
(0,-150,cs),
(0,-204,o),
(45,-230,o),
(144,-230,cs)
);
}
);
width = 513;
}
);
metricRight = v;
unicode = 121;
},
{
color = 6;
glyphname = z;
lastChange = "2023-12-13 19:32:56 +0000";
layers = (
{
layerId = "2F065738-4B59-43EB-A5F2-FD5F277958EA";
shapes = (
{
closed = 1;
nodes = (
(372,0,ls),
(418,0,o),
(439,19,o),
(439,59,cs),
(439,101,o),
(416,122,o),
(372,122,cs),
(206,122,ls),
(192,122,o),
(220,119,o),
(243,154,cs),
(361,331,l),
(359,329,o),
(434,425,o),
(434,460,cs),
(434,475,o),
(420,500,o),
(388,500,cs),
(98,500,ls),
(52,500,o),
(31,479,o),
(31,439,cs),
(31,397,o),
(54,378,o),
(98,378,cs),
(245,378,ls),
(247,378,o),
(234,379,o),
(212,344,cs),
(51,85,ls),
(34,57,o),
(34,50,o),
(34,43,cs),
(34,13,o),
(47,0,o),
(80,0,cs)
);
}
);
width = 472;
}
);
unicode = 122;
},
{
color = 1;
glyphname = zero;
lastChange = "2023-12-13 19:34:28 +0000";
layers = (
{
layerId = "2F065738-4B59-43EB-A5F2-FD5F277958EA";
shapes = (
{
closed = 1;
nodes = (
(445,-11,o),
(535,107,o),
(535,351,cs),
(535,594,o),
(446,711,o),
(296,711,cs),
(146,711,o),
(57,594,o),
(57,351,cs),
(57,107,o),
(147,-11,o),
(296,-11,cs)
);
},
{
closed = 1;
nodes = (
(236,121,o),
(207,175,o),
(207,351,cs),
(207,526,o),
(236,579,o),
(296,579,cs),
(356,579,o),
(385,526,o),
(385,351,cs),
(385,175,o),
(356,121,o),
(296,121,cs)
);
}
);
width = 592;
}
);
metricLeft = O;
metricRight = O;
unicode = 48;
},
{
color = 1;
glyphname = one;
lastChange = "2023-12-13 19:34:28 +0000";
layers = (
{
layerId = "2F065738-4B59-43EB-A5F2-FD5F277958EA";
shapes = (
{
closed = 1;
nodes = (
(199,-11,o),
(220,10,o),
(220,56,cs),
(220,644,ls),
(220,690,o),
(196,711,o),
(147,711,cs),
(97,711,o),
(76,690,o),
(76,644,cs),
(76,56,ls),
(76,10,o),
(100,-11,o),
(150,-11,cs)
);
}
);
width = 296;
}
);
metricLeft = H;
metricRight = H;
unicode = 49;
},
{
color = 1;
glyphname = two;
lastChange = "2023-12-13 19:34:28 +0000";
layers = (
{
layerId = "2F065738-4B59-43EB-A5F2-FD5F277958EA";
shapes = (
{
closed = 1;
nodes = (
(450,0,ls),
(500,0,o),
(527,24,o),
(527,69,cs),
(527,114,o),
(499,139,o),
(450,139,cs),
(262,139,ls),
(239,139,o),
(213,128,o),
(197,109,c),
(204,119,o),
(211,135,o),
(210,148,cs),
(210,150,ls),
(210,194,o),
(230,213,o),
(314,237,cs),
(462,279,o),
(524,342,o),
(524,498,cs),
(524,633,o),
(425,711,o),
(265,711,cs),
(214,711,o),
(165,703,o),
(131,689,cs),
(103,678,o),
(89,660,o),
(89,632,cs),
(89,593,o),
(111,572,o),
(162,572,cs),
(196,572,o),
(236,579,o),
(273,579,cs),
(352,579,o),
(381,543,o),
(381,497,cs),
(381,402,o),
(347,386,o),
(236,353,cs),
(110,315,o),
(66,250,o),
(66,132,cs),
(66,78,ls),
(66,40,o),
(88,0,o),
(136,0,cs)
);
}
);
width = 600;
}
);
unicode = 50;
},
{
color = 1;
glyphname = three;
lastChange = "2023-12-13 19:34:28 +0000";
layers = (
{
layerId = "2F065738-4B59-43EB-A5F2-FD5F277958EA";
shapes = (
{
closed = 1;
nodes = (
(467,-11,o),
(535,99,o),
(535,200,cs),
(535,265,o),
(507,326,o),
(467,350,c),
(511,375,o),
(534,439,o),
(534,505,cs),
(534,641,o),
(426,713,o),
(269,711,cs),
(179,710,o),
(113,689,o),
(113,627,cs),
(113,592,o),
(136,573,o),
(191,573,cs),
(227,573,o),
(252,580,o),
(282,580,cs),
(351,580,o),
(390,553,o),
(390,505,cs),
(390,428,o),
(351,415,o),
(305,415,cs),
(192,415,ls),
(147,415,o),
(125,383,o),
(125,350,cs),
(125,318,o),
(147,285,o),
(192,285,cs),
(301,285,ls),
(347,285,o),
(390,272,o),
(390,193,cs),
(390,147,o),
(347,119,o),
(278,119,cs),
(238,119,o),
(197,127,o),
(161,127,cs),
(106,127,o),
(86,104,o),
(86,73,cs),
(86,43,o),
(98,24,o),
(128,12,cs),
(164,-3,o),
(215,-11,o),
(269,-11,cs)
);
}
);
width = 600;
}
);
unicode = 51;
},
{
color = 1;
glyphname = four;
lastChange = "2023-12-13 19:34:28 +0000";
layers = (
{
layerId = "2F065738-4B59-43EB-A5F2-FD5F277958EA";
shapes = (
{
closed = 1;
nodes = (
(141,180,o),
(145,202,o),
(162,247,cs),
(308,643,ls),
(325,688,o),
(284,710,o),
(235,710,cs),
(185,710,o),
(181,688,o),
(164,643,cs),
(18,247,ls),
(1,202,o),
(42,180,o),
(92,180,cs)
);
},
{
closed = 1;
nodes = (
(497,180,ls),
(547,180,o),
(574,204,o),
(574,249,cs),
(574,294,o),
(546,319,o),
(497,319,cs),
(226,319,ls),
(203,319,o),
(178,307,o),
(162,288,c),
(162,309,o),
(162,347,o),
(162,369,c),
(26,258,l),
(26,206,o),
(50,180,o),
(98,180,cs)
);
},
{
closed = 1;
nodes = (
(447,-11,o),
(468,10,o),
(468,56,cs),
(468,398,ls),
(468,444,o),
(444,465,o),
(395,465,cs),
(345,465,o),
(324,444,o),
(324,398,cs),
(324,56,ls),
(324,10,o),
(348,-11,o),
(398,-11,cs)
);
}
);
width = 600;
}
);
unicode = 52;
},
{
color = 1;
glyphname = five;
lastChange = "2023-12-13 19:34:28 +0000";
layers = (
{
layerId = "2F065738-4B59-43EB-A5F2-FD5F277958EA";
shapes = (
{
closed = 1;
nodes = (
(380,-11,o),
(488,67,o),
(488,207,cs),
(488,410,o),
(343,429,o),
(179,427,c),
(179,427,o),
(199,593,o),
(199,591,c),
(215,572,o),
(241,561,o),
(264,561,cs),
(389,561,ls),
(438,561,o),
(466,591,o),
(466,636,cs),
(466,681,o),
(439,700,o),
(389,700,cs),
(146,700,ls),
(98,700,o),
(82,657,o),
(76,605,cs),
(49,367,l),
(50,339,o),
(75,311,o),
(116,311,cs),
(225,311,ls),
(271,311,o),
(344,301,o),
(344,207,cs),
(344,145,o),
(295,118,o),
(226,118,cs),
(188,118,o),
(128,140,o),
(95,140,cs),
(46,140,o),
(24,116,o),
(24,70,cs),
(24,-6,o),
(162,-11,o),
(223,-11,cs)
);
}
);
width = 522;
}
);
unicode = 53;
},
{
color = 1;
glyphname = six;
lastChange = "2023-12-13 19:34:28 +0000";
layers = (
{
layerId = "2F065738-4B59-43EB-A5F2-FD5F277958EA";
shapes = (
{
closed = 1;
nodes = (
(480,-11,o),
(568,88,o),
(568,250,cs),
(568,404,o),
(480,486,o),
(353,486,cs),
(305,486,o),
(261,471,o),
(233,444,c),
(252,572,o),
(304,581,o),
(433,581,cs),
(477,581,o),
(499,598,o),
(499,643,cs),
(499,694,o),
(470,711,o),
(385,711,cs),
(164,711,o),
(89,577,o),
(89,347,cs),
(89,135,o),
(165,-11,o),
(349,-11,cs)
);
},
{
closed = 1;
nodes = (
(282,119,o),
(250,170,o),
(250,250,cs),
(250,309,o),
(282,366,o),
(337,366,cs),
(392,366,o),
(424,309,o),
(424,250,cs),
(424,170,o),
(392,119,o),
(349,119,cs)
);
}
);
width = 600;
}
);
unicode = 54;
},
{
color = 1;
glyphname = seven;
lastChange = "2023-12-13 19:34:28 +0000";
layers = (
{
layerId = "2F065738-4B59-43EB-A5F2-FD5F277958EA";
shapes = (
{
closed = 1;
nodes = (
(275,0,o),
(279,29,o),
(299,78,cs),
(527,633,ls),
(545,677,o),
(514,711,o),
(455,711,cs),
(104,711,ls),
(54,711,o),
(27,687,o),
(27,642,cs),
(27,597,o),
(55,572,o),
(104,572,cs),
(295,572,ls),
(318,572,o),
(343,584,o),
(359,603,c),
(359,603,o),
(334,544,o),
(325,522,c),
(143,78,ls),
(123,30,o),
(179,0,o),
(227,0,cs)
);
}
);
width = 600;
}
);
unicode = 55;
},
{
color = 1;
glyphname = eight;
lastChange = "2023-12-13 19:34:28 +0000";
layers = (
{
layerId = "2F065738-4B59-43EB-A5F2-FD5F277958EA";
shapes = (
{
closed = 1;
nodes = (
(454,-11,o),
(553,56,o),
(553,192,cs),
(553,265,o),
(514,321,o),
(458,350,c),
(503,377,o),
(530,439,o),
(530,504,cs),
(530,604,o),
(468,711,o),
(309,711,cs),
(150,711,o),
(86,605,o),
(86,504,cs),
(86,440,o),
(114,378,o),
(161,350,c),
(106,321,o),
(62,265,o),
(62,192,cs),
(62,56,o),
(174,-11,o),
(309,-11,cs)
);
},
{
closed = 1;
nodes = (
(259,111,o),
(206,149,o),
(206,197,cs),
(206,252,o),
(245,297,o),
(307,297,cs),
(373,297,o),
(409,252,o),
(409,197,cs),
(409,147,o),
(360,111,o),
(310,111,cs)
);
},
{
closed = 1;
nodes = (
(253,417,o),
(226,459,o),
(226,504,cs),
(226,546,o),
(255,591,o),
(307,591,cs),
(363,591,o),
(390,546,o),
(390,504,cs),
(390,459,o),
(364,417,o),
(314,417,cs)
);
}
);
width = 600;
}
);
unicode = 56;
},
{
color = 1;
glyphname = nine;
lastChange = "2023-12-13 19:34:28 +0000";
layers = (
{
layerId = "2F065738-4B59-43EB-A5F2-FD5F277958EA";
shapes = (
{
closed = 1;
nodes = (
(477,-11,o),
(569,102,o),
(569,353,cs),
(569,583,o),
(480,711,o),
(321,711,cs),
(178,711,o),
(90,612,o),
(90,450,cs),
(90,303,o),
(171,214,o),
(305,214,cs),
(353,214,o),
(397,229,o),
(425,256,c),
(406,128,o),
(354,119,o),
(225,119,cs),
(181,119,o),
(159,102,o),
(159,57,cs),
(159,6,o),
(188,-11,o),
(273,-11,cs)
);
},
{
closed = 1;
nodes = (
(266,334,o),
(234,391,o),
(234,450,cs),
(234,530,o),
(266,581,o),
(321,581,cs),
(376,581,o),
(408,530,o),
(408,450,cs),
(408,391,o),
(376,334,o),
(321,334,cs)
);
}
);
width = 600;
}
);
unicode = 57;
},
{
color = 3;
glyphname = period;
lastChange = "2023-12-13 19:34:46 +0000";
layers = (
{
layerId = "2F065738-4B59-43EB-A5F2-FD5F277958EA";
shapes = (
{
closed = 1;
nodes = (
(169,-11,o),
(201,21,o),
(201,67,cs),
(201,114,o),
(169,146,o),
(122,146,cs),
(74,146,o),
(43,114,o),
(43,67,cs),
(43,21,o),
(74,-11,o),
(122,-11,cs)
);
}
);
width = 244;
}
);
metricRight = "=|";
unicode = 46;
},
{
color = 2;
glyphname = comma;
lastChange = "2023-12-13 19:41:59 +0000";
layers = (
{
layerId = "2F065738-4B59-43EB-A5F2-FD5F277958EA";
shapes = (
{
closed = 1;
nodes = (
(66,-230,ls),
(88,-230,o),
(100,-220,o),
(109,-203,cs),
(225,18,ls),
(229,25,o),
(230,31,o),
(230,37,cs),
(230,51,o),
(219,60,o),
(198,60,cs),
(119,60,ls),
(100,60,o),
(75,50,o),
(70,29,cs),
(13,-181,ls),
(11,-190,o),
(10,-193,o),
(10,-201,cs),
(10,-222,o),
(18,-230,o),
(42,-230,cs)
);
}
);
width = 375;
},
{
associatedMasterId = "2F065738-4B59-43EB-A5F2-FD5F277958EA";
layerId = "AF382407-ED47-4C2D-9EBF-2126331DCEC5";
name = "11 Dec 23, 17:56";
shapes = (
{
closed = 1;
nodes = (
(120,-229,ls),
(146,-229,o),
(162,-217,o),
(173,-196,cs),
(318,80,ls),
(323,89,o),
(325,96,o),
(325,103,cs),
(325,122,o),
(311,133,o),
(285,133,cs),
(229,133,o),
(140,148,o),
(125,94,cs),
(54,-168,ls),
(51,-179,o),
(50,-184,o),
(50,-193,cs),
(50,-220,o),
(59,-229,o),
(90,-229,cs)
);
}
);
width = 375;
}
);
unicode = 44;
},
{
color = 4;
glyphname = exclam;
lastChange = "2023-12-13 19:41:51 +0000";
layers = (
{
layerId = "2F065738-4B59-43EB-A5F2-FD5F277958EA";
shapes = (
{
closed = 1;
nodes = (
(174,209,o),
(194,235,o),
(194,277,cs),
(194,643,ls),
(194,685,o),
(174,711,o),
(122,711,cs),
(70,711,o),
(50,685,o),
(50,643,cs),
(50,277,ls),
(50,235,o),
(70,209,o),
(122,209,cs)
);
},
{
ref = period;
}
);
width = 246;
},
{
associatedMasterId = "2F065738-4B59-43EB-A5F2-FD5F277958EA";
layerId = "533EFD77-135B-4D0D-B9C9-49A30903D09C";
name = "11 Dec 23, 17:57";
shapes = (
{
closed = 1;
nodes = (
(174,189,o),
(194,215,o),
(194,257,cs),
(194,643,ls),
(194,685,o),
(174,711,o),
(122,711,cs),
(70,711,o),
(50,685,o),
(50,643,cs),
(50,257,ls),
(50,215,o),
(70,189,o),
(122,189,cs)
);
},
{
closed = 1;
nodes = (
(166,-11,o),
(196,20,o),
(196,61,cs),
(196,101,o),
(166,133,o),
(124,133,cs),
(83,133,o),
(52,101,o),
(52,61,cs),
(52,20,o),
(83,-11,o),
(124,-11,cs)
);
}
);
width = 246;
}
);
unicode = 33;
},
{
color = 4;
glyphname = question;
lastChange = "2023-12-13 19:41:47 +0000";
layers = (
{
layerId = "2F065738-4B59-43EB-A5F2-FD5F277958EA";
shapes = (
{
closed = 1;
nodes = (
(232,192,o),
(258,215,o),
(258,249,cs),
(258,258,o),
(256,265,o),
(255,269,cs),
(253,277,o),
(253,280,o),
(253,292,cs),
(253,331,o),
(281,340,o),
(331,361,cs),
(405,392,o),
(470,419,o),
(470,518,cs),
(470,639,o),
(373,711,o),
(198,711,cs),
(97,711,o),
(40,687,o),
(40,637,cs),
(40,599,o),
(74,575,o),
(129,575,cs),
(151,575,o),
(212,579,o),
(238,579,cs),
(287,579,o),
(334,564,o),
(334,522,cs),
(334,482,o),
(293,482,o),
(235,459,cs),
(137,420,o),
(107,359,o),
(107,302,cs),
(107,256,o),
(127,192,o),
(193,192,cs)
);
},
{
pos = (56,0);
ref = period;
}
);
width = 505;
}
);
unicode = 63;
},
{
color = 5;
glyphname = periodcentered;
lastChange = "2023-12-13 19:42:06 +0000";
layers = (
{
layerId = "2F065738-4B59-43EB-A5F2-FD5F277958EA";
shapes = (
{
closed = 1;
nodes = (
(366,221,o),
(401,257,o),
(401,303,cs),
(401,350,o),
(366,385,o),
(319,385,cs),
(271,385,o),
(237,350,o),
(237,303,cs),
(237,257,o),
(271,221,o),
(319,221,cs)
);
}
);
width = 600;
}
);
unicode = 183;
},
{
color = 5;
glyphname = bullet;
lastChange = "2023-12-13 19:42:06 +0000";
layers = (
{
layerId = "2F065738-4B59-43EB-A5F2-FD5F277958EA";
shapes = (
{
closed = 1;
nodes = (
(389,180,o),
(442,234,o),
(442,303,cs),
(442,373,o),
(389,426,o),
(319,426,cs),
(247,426,o),
(196,373,o),
(196,303,cs),
(196,234,o),
(247,180,o),
(319,180,cs)
);
}
);
width = 600;
}
);
unicode = 8226;
},
{
color = 3;
glyphname = asterisk;
lastChange = "2023-12-13 19:43:53 +0000";
layers = (
{
background = {
shapes = (
{
closed = 1;
nodes = (
(215,445,o),
(228,447,o),
(239,458,cs),
(412,631,ls),
(423,642,o),
(425,655,o),
(413,667,cs),
(401,679,o),
(388,677,o),
(377,666,cs),
(204,493,ls),
(193,482,o),
(191,469,o),
(203,457,cs)
);
},
{
closed = 1;
nodes = (
(425,469,o),
(423,482,o),
(412,493,cs),
(239,666,ls),
(228,677,o),
(215,679,o),
(203,667,cs),
(191,655,o),
(193,642,o),
(204,631,cs),
(377,458,ls),
(388,447,o),
(401,445,o),
(413,457,cs)
);
},
{
closed = 1;
nodes = (
(325,413,o),
(333,424,o),
(333,440,cs),
(333,684,ls),
(333,700,o),
(325,711,o),
(308,711,cs),
(291,711,o),
(283,700,o),
(283,684,cs),
(283,440,ls),
(283,424,o),
(291,413,o),
(308,413,cs)
);
},
{
closed = 1;
nodes = (
(430,537,ls),
(446,537,o),
(456,545,o),
(456,562,cs),
(456,579,o),
(446,587,o),
(430,587,cs),
(186,587,ls),
(170,587,o),
(160,579,o),
(160,562,cs),
(160,545,o),
(170,537,o),
(186,537,cs)
);
}
);
};
layerId = "2F065738-4B59-43EB-A5F2-FD5F277958EA";
shapes = (
{
closed = 1;
nodes = (
(215,445,o),
(228,447,o),
(239,458,cs),
(283,502,l),
(283,440,ls),
(283,424,o),
(291,413,o),
(308,413,cs),
(325,413,o),
(333,424,o),
(333,440,cs),
(333,502,l),
(377,458,ls),
(388,447,o),
(401,445,o),
(413,457,cs),
(425,469,o),
(423,482,o),
(412,493,cs),
(368,537,l),
(430,537,ls),
(446,537,o),
(456,545,o),
(456,562,cs),
(456,579,o),
(446,587,o),
(430,587,cs),
(368,587,l),
(412,631,ls),
(423,642,o),
(425,655,o),
(413,667,cs),
(401,679,o),
(388,677,o),
(377,666,cs),
(333,622,l),
(333,684,ls),
(333,700,o),
(325,711,o),
(308,711,cs),
(291,711,o),
(283,700,o),
(283,684,cs),
(283,622,l),
(239,666,ls),
(228,677,o),
(215,679,o),
(203,667,cs),
(191,655,o),
(193,642,o),
(204,631,cs),
(248,587,l),
(186,587,ls),
(170,587,o),
(160,579,o),
(160,562,cs),
(160,545,o),
(170,537,o),
(186,537,cs),
(248,537,l),
(204,493,ls),
(193,482,o),
(191,469,o),
(203,457,cs)
);
}
);
width = 600;
}
);
unicode = 42;
},
{
color = 3;
glyphname = numbersign;
lastChange = "2023-12-13 19:34:50 +0000";
layers = (
{
layerId = "2F065738-4B59-43EB-A5F2-FD5F277958EA";
shapes = (
{
closed = 1;
nodes = (
(462,-11,o),
(488,15,o),
(498,57,cs),
(546,252,o),
(594,448,o),
(638,628,cs),
(646,659,o),
(633,711,o),
(586,711,cs),
(534,711,o),
(508,685,o),
(498,643,cs),
(354,57,ls),
(344,15,o),
(384,-11,o),
(410,-11,cs)
);
},
{
closed = 1;
nodes = (
(130,-11,o),
(156,15,o),
(166,57,cs),
(214,252,o),
(262,448,o),
(306,628,cs),
(314,659,o),
(301,711,o),
(254,711,cs),
(202,711,o),
(176,685,o),
(166,643,cs),
(22,57,ls),
(12,15,o),
(52,-11,o),
(78,-11,cs)
);
},
{
closed = 1;
nodes = (
(599,144,ls),
(641,144,o),
(667,164,o),
(667,216,cs),
(667,268,o),
(641,288,o),
(599,288,cs),
(46,288,ls),
(4,288,o),
(-22,268,o),
(-22,216,cs),
(-22,164,o),
(4,144,o),
(46,144,cs)
);
},
{
closed = 1;
nodes = (
(635,422,ls),
(677,422,o),
(703,442,o),
(703,494,cs),
(703,546,o),
(677,566,o),
(635,566,cs),
(82,566,ls),
(40,566,o),
(14,546,o),
(14,494,cs),
(14,442,o),
(40,422,o),
(82,422,cs)
);
}
);
width = 660;
}
);
unicode = 35;
},
{
color = 3;
glyphname = slash;
lastChange = "2023-12-13 19:34:50 +0000";
layers = (
{
layerId = "2F065738-4B59-43EB-A5F2-FD5F277958EA";
shapes = (
{
closed = 1;
nodes = (
(160,-158,o),
(186,-132,o),
(196,-90,cs),
(244,105,o),
(332,448,o),
(373,628,cs),
(380,659,o),
(366,711,o),
(319,711,cs),
(267,711,o),
(242,685,o),
(232,643,cs),
(52,-90,ls),
(42,-132,o),
(82,-158,o),
(108,-158,cs)
);
}
);
width = 425;
}
);
unicode = 47;
},
{
color = 3;
glyphname = backslash;
lastChange = "2023-12-13 19:34:50 +0000";
layers = (
{
layerId = "2F065738-4B59-43EB-A5F2-FD5F277958EA";
shapes = (
{
closed = 1;
nodes = (
(343,-158,o),
(383,-132,o),
(373,-90,cs),
(193,643,ls),
(183,685,o),
(158,711,o),
(106,711,cs),
(59,711,o),
(45,659,o),
(52,628,cs),
(93,448,o),
(181,105,o),
(229,-90,cs),
(239,-132,o),
(265,-158,o),
(317,-158,cs)
);
}
);
width = 425;
}
);
unicode = 92;
},
{
color = 3;
glyphname = hyphen;
lastChange = "2023-12-13 19:34:50 +0000";
layers = (
{
layerId = "2F065738-4B59-43EB-A5F2-FD5F277958EA";
shapes = (
{
closed = 1;
nodes = (
(376,216,ls),
(418,216,o),
(444,236,o),
(444,288,cs),
(444,340,o),
(418,360,o),
(376,360,cs),
(118,360,ls),
(76,360,o),
(50,340,o),
(50,288,cs),
(50,236,o),
(76,216,o),
(118,216,cs)
);
}
);
width = 494;
}
);
unicode = 45;
},
{
color = 3;
glyphname = endash;
lastChange = "2023-12-13 19:34:50 +0000";
layers = (
{
layerId = "2F065738-4B59-43EB-A5F2-FD5F277958EA";
shapes = (
{
closed = 1;
nodes = (
(481,216,ls),
(523,216,o),
(549,236,o),
(549,288,cs),
(549,340,o),
(523,360,o),
(481,360,cs),
(118,360,ls),
(76,360,o),
(50,340,o),
(50,288,cs),
(50,236,o),
(76,216,o),
(118,216,cs)
);
}
);
width = 599;
}
);
unicode = 8211;
},
{
color = 3;
glyphname = emdash;
lastChange = "2023-12-13 19:34:50 +0000";
layers = (
{
layerId = "2F065738-4B59-43EB-A5F2-FD5F277958EA";
shapes = (
{
closed = 1;
nodes = (
(856,216,ls),
(898,216,o),
(924,236,o),
(924,288,cs),
(924,340,o),
(898,360,o),
(856,360,cs),
(118,360,l),
(76,360,o),
(50,340,o),
(50,288,c),
(50,236,o),
(76,216,o),
(118,216,c)
);
}
);
width = 974;
}
);
unicode = 8212;
},
{
color = 3;
glyphname = underscore;
lastChange = "2023-12-13 19:34:50 +0000";
layers = (
{
layerId = "2F065738-4B59-43EB-A5F2-FD5F277958EA";
shapes = (
{
closed = 1;
nodes = (
(481,0,ls),
(523,0,o),
(549,20,o),
(549,72,cs),
(549,124,o),
(523,144,o),
(481,144,cs),
(118,144,ls),
(76,144,o),
(50,124,o),
(50,72,cs),
(50,20,o),
(76,0,o),
(118,0,cs)
);
}
);
width = 600;
}
);
unicode = 95;
},
{
color = 0;
glyphname = dieresiscomb;
lastChange = "2023-12-13 19:35:06 +0000";
layers = (
{
anchors = (
{
name = _top;
pos = (0,480);
},
{
name = top;
}
);
layerId = "2F065738-4B59-43EB-A5F2-FD5F277958EA";
shapes = (
{
closed = 1;
nodes = (
(1436,-14,o),
(1482,11,o),
(1517,78,c),
(1552,11,o),
(1598,-14,o),
(1686,-14,cs),
(1827,-14,o),
(1887,52,o),
(1887,209,cs),
(1887,440,ls),
(1887,486,o),
(1863,508,o),
(1815,508,cs),
(1767,508,o),
(1743,486,o),
(1743,440,cs),
(1743,215,ls),
(1743,136,o),
(1723,106,o),
(1671,106,cs),
(1614,106,o),
(1589,142,o),
(1589,225,cs),
(1589,440,ls),
(1589,486,o),
(1565,508,o),
(1517,508,cs),
(1469,508,o),
(1445,486,o),
(1445,440,cs),
(1445,225,ls),
(1445,142,o),
(1420,106,o),
(1363,106,cs),
(1311,106,o),
(1291,136,o),
(1291,215,cs),
(1291,440,ls),
(1291,486,o),
(1267,508,o),
(1219,508,cs),
(1171,508,o),
(1147,486,o),
(1147,440,cs),
(1147,209,ls),
(1147,52,o),
(1207,-14,o),
(1348,-14,cs)
);
}
);
width = 300;
}
);
unicode = 776;
},
{
color = 1;
glyphname = acutecomb;
lastChange = "2023-12-13 19:53:15 +0000";
layers = (
{
anchors = (
{
name = _top;
pos = (149,500);
},
{
name = top;
pos = (149,703);
}
);
layerId = "2F065738-4B59-43EB-A5F2-FD5F277958EA";
shapes = (
{
closed = 1;
nodes = (
(78,536,o),
(142,554,o),
(182,574,cs),
(238,602,o),
(276,639,o),
(276,666,cs),
(276,688,o),
(255,703,o),
(224,703,cs),
(184,703,o),
(134,683,o),
(94,651,cs),
(53,620,o),
(22,580,o),
(22,559,cs),
(22,544,o),
(32,536,o),
(50,536,cs)
);
}
);
width = 287;
}
);
unicode = 769;
},
{
color = 1;
glyphname = macroncomb;
lastChange = "2023-12-13 19:34:57 +0000";
layers = (
{
anchors = (
{
name = _top;
pos = (206,687);
},
{
name = top;
pos = (206,791);
}
);
hints = (
{
horizontal = 1;
place = (710,81);
type = Stem;
},
{
place = (50,312);
type = Stem;
}
);
layerId = "2F065738-4B59-43EB-A5F2-FD5F277958EA";
shapes = (
{
closed = 1;
nodes = (
(317,710,ls),
(340,710,o),
(362,726,o),
(362,750,cs),
(362,774,o),
(340,791,o),
(317,791,cs),
(95,791,ls),
(72,791,o),
(50,774,o),
(50,750,cs),
(50,726,o),
(72,710,o),
(95,710,cs)
);
}
);
width = 412;
}
);
unicode = 772;
},
{
color = 1;
glyphname = tilde;
lastChange = "2023-12-13 19:34:57 +0000";
layers = (
{
hints = (
{
horizontal = 1;
place = (600,121);
type = Stem;
},
{
horizontal = 1;
place = (551,72);
type = Stem;
},
{
place = (50,290);
type = Stem;
}
);
layerId = "2F065738-4B59-43EB-A5F2-FD5F277958EA";
shapes = (
{
closed = 1;
nodes = (
(295,551,o),
(340,586,o),
(340,630,cs),
(340,659,o),
(320,672,o),
(293,672,cs),
(245,672,o),
(258,623,o),
(245,623,cs),
(241,623,o),
(240,634,o),
(240,636,cs),
(240,648,o),
(238,665,o),
(228,681,cs),
(210,710,o),
(175,721,o),
(146,721,cs),
(91,721,o),
(50,683,o),
(50,642,cs),
(50,613,o),
(70,600,o),
(97,600,cs),
(144,600,o),
(145,638,o),
(145,649,cs),
(145,650,ls),
(145,654,o),
(150,639,o),
(150,636,cs),
(150,625,o),
(152,609,o),
(161,594,cs),
(179,563,o),
(215,551,o),
(245,551,cs)
);
}
);
width = 390;
}
);
note = tilde;
unicode = 732;
},
{
color = 1;
glyphname = macron;
lastChange = "2023-12-13 19:34:57 +0000";
layers = (
{
hints = (
{
horizontal = 1;
place = (710,81);
type = Stem;
},
{
place = (50,312);
type = Stem;
}
);
layerId = "2F065738-4B59-43EB-A5F2-FD5F277958EA";
shapes = (
{
closed = 1;
nodes = (
(317,681,ls),
(340,681,o),
(362,697,o),
(362,721,cs),
(362,745,o),
(340,762,o),
(317,762,cs),
(95,762,ls),
(72,762,o),
(50,745,o),
(50,721,cs),
(50,697,o),
(72,681,o),
(95,681,cs)
);
}
);
width = 412;
}
);
note = macron;
unicode = 175;
},
